<svg width="40" height="25" viewBox="0 0 40 25" fill="none" xmlns="http://www.w3.org/2000/svg">
<path d="M25.4296 10.7447L25.4043 10.4961C25.3346 9.8779 25.2332 9.27054 25.0986 8.6787L25.0432 8.43637L25.2792 8.35404C26.3911 7.96415 27.5362 7.68765 28.6957 7.52144C29.8614 7.35523 31.0398 7.30396 32.2151 7.3661L32.4717 7.38008L32.4859 7.63173C32.5493 8.78433 32.497 9.94159 32.3276 11.0833C32.1597 12.2204 31.8761 13.3435 31.4786 14.434L31.393 14.6654L31.1475 14.611C30.5441 14.479 29.9248 14.3796 29.2944 14.3112L29.0409 14.2864C29.7014 14.4666 30.3477 14.684 30.9765 14.9372L31.2442 15.0444L31.1333 15.3054C30.8719 15.9174 30.571 16.5186 30.232 17.1073L30.392 16.9162C30.7896 16.43 31.1539 15.9299 31.4865 15.4188L31.6211 15.2106L31.8492 15.3163C32.9184 15.8133 33.9289 16.4098 34.865 17.0949C35.8074 17.7846 36.6785 18.5659 37.4673 19.428L37.6384 19.6145C37.5814 19.6766 37.5259 19.7387 37.4673 19.8009C35.6538 21.7519 33.0324 23.6781 29.1613 25C30.8403 24.7996 33.5693 24.2435 36.4014 22.5208C37.9694 21.567 39.151 20.5092 40 19.616C38.9815 18.5349 37.8174 17.5857 36.5407 16.7966C35.2134 15.9749 33.7626 15.3287 32.223 14.8875L31.8809 14.7897L32.052 14.4837C32.8233 13.1043 33.3824 11.6394 33.7293 10.1389C34.0619 8.69579 34.1997 7.21853 34.1411 5.74593C32.6412 5.68846 31.1333 5.8236 29.6618 6.14981C28.1318 6.49 26.6397 7.03834 25.2332 7.79483L24.9212 7.96259L24.8214 7.62707C24.3716 6.11719 23.7127 4.6943 22.8748 3.39257C22.0702 2.14055 21.1008 0.998819 20 0C18.8976 0.998819 17.9298 2.14055 17.1252 3.39257C16.2873 4.6943 15.6284 6.11719 15.1786 7.62707L15.0788 7.96259L14.7668 7.79483C13.3587 7.03834 11.8666 6.49 10.3382 6.14981C8.86671 5.8236 7.36042 5.68846 5.85887 5.74593C5.80027 7.21853 5.93807 8.69579 6.27069 10.1389C6.61757 11.6379 7.17668 13.1027 7.94805 14.4821L8.11911 14.7881L7.77699 14.886C6.23743 15.3271 4.78657 15.9733 3.45925 16.7951C2.18262 17.5842 1.02004 18.5349 0 19.6145C0.848974 20.5092 2.02899 21.567 3.59864 22.5208C6.44017 24.2482 9.17716 24.7996 10.8577 24.9969C6.97553 23.6781 4.34941 21.7534 2.53267 19.8009C2.47565 19.7387 2.41863 19.6766 2.36161 19.6145L2.53267 19.428C3.32145 18.5659 4.1926 17.7846 5.13344 17.0949C6.06953 16.4098 7.08007 15.8133 8.1492 15.3163L8.37729 15.2091L8.51192 15.4188C8.84612 15.9345 9.21201 16.4363 9.60482 16.9162L9.76479 17.1089C9.42583 16.5201 9.12648 15.919 8.86355 15.3069L8.75109 15.046L9.01877 14.9388C9.64758 14.6872 10.2938 14.4697 10.9543 14.2879L10.7009 14.3128C10.0705 14.3796 9.45118 14.4806 8.84771 14.6126L8.6022 14.667L8.51826 14.4355C8.12069 13.345 7.83717 12.2219 7.66928 11.0849C7.50139 9.94159 7.44753 8.78588 7.51089 7.63328L7.52356 7.38163L7.78015 7.36765C8.95541 7.30552 10.1354 7.35678 11.2996 7.52299C12.459 7.68765 13.6042 7.9657 14.7161 8.3556L14.9521 8.43793L14.8982 8.68025C14.7636 9.27209 14.6622 9.87791 14.5925 10.4977L14.5656 10.7462C14.7493 10.0985 14.9711 9.46471 15.2293 8.84646L15.3386 8.58394L15.6031 8.69268C15.9499 8.83559 16.2952 8.99093 16.6374 9.15714C16.867 9.27054 17.0967 9.38859 17.3264 9.51286L17.3343 9.48956C17.1046 9.30626 16.8686 9.12763 16.6263 8.95365C16.3333 8.74394 16.0291 8.54045 15.7187 8.34628L15.5065 8.21424L15.6142 7.99056C16.121 6.94203 16.7308 5.95098 17.4293 5.03293C18.1326 4.10867 18.9293 3.25432 19.8083 2.48229L19.9984 2.31453L20.1885 2.48229C21.0676 3.25587 21.8643 4.11023 22.5675 5.03293C23.266 5.95098 23.8758 6.94203 24.3827 7.99056L24.4904 8.21269L24.2781 8.34472C23.9756 8.53424 23.6715 8.73617 23.3706 8.95365C23.1282 9.12763 22.8922 9.30626 22.6625 9.48956L22.6721 9.51131C22.9017 9.38704 23.1314 9.26743 23.3626 9.15559C23.6984 8.99093 24.0437 8.83714 24.3953 8.69268L24.6599 8.58394L24.7691 8.84646C25.0257 9.46315 25.2491 10.0985 25.4328 10.7462L25.4296 10.7447Z" fill="#FF6F00"/>
<path fill-rule="evenodd" clip-rule="evenodd" d="M26.3029 15.2568C26.5828 14.9515 26.5621 14.477 26.2568 14.1971C25.9515 13.9172 25.477 13.9379 25.1971 14.2432L17.5 22.6401L14.3029 19.1523C14.023 18.847 13.5486 18.8263 13.2432 19.1062C12.9379 19.3861 12.9172 19.8605 13.1971 20.1659L16.9471 24.2568C17.0892 24.4118 17.2898 24.5 17.5 24.5C17.7102 24.5 17.9108 24.4118 18.0529 24.2568L26.3029 15.2568Z" fill="#FF6F00"/>
<path fill-rule="evenodd" clip-rule="evenodd" d="M26.3029 15.2568C26.5828 14.9515 26.5621 14.477 26.2568 14.1971C25.9515 13.9172 25.477 13.9379 25.1971 14.2432L17.5 22.6401L14.3029 19.1523C14.023 18.847 13.5486 18.8263 13.2432 19.1062C12.9379 19.3861 12.9172 19.8605 13.1971 20.1659L16.9471 24.2568C17.0892 24.4118 17.2898 24.5 17.5 24.5C17.7102 24.5 17.9108 24.4118 18.0529 24.2568L26.3029 15.2568Z" fill="#FF6F00"/>
</svg>
