<svg width="360" height="91" viewBox="0 0 360 91" fill="none" xmlns="http://www.w3.org/2000/svg">
<rect x="0.5" y="0.5" width="359" height="90" rx="6.5" fill="#E7F3ED" stroke="#70B794"/>
<path d="M54.1287 42.1426C50.9876 42.1426 48.4357 44.6952 48.4357 47.8371C48.4357 50.979 50.9876 53.5316 54.1287 53.5316C57.2698 53.5316 59.8217 50.979 59.8217 47.8371C59.8217 44.6952 57.2698 42.1426 54.1287 42.1426ZM54.1287 52.1607C51.7473 52.1607 49.8248 50.2191 49.8248 47.8371C49.8248 45.4551 51.7473 43.5321 54.1287 43.5321C56.5101 43.5321 58.4512 45.4551 58.4512 47.8371C58.4512 50.2191 56.5101 52.1607 54.1287 52.1607Z" fill="#10874C"/>
<path d="M64.7799 34.4568L64.7303 33.9605C64.5969 32.7261 64.3954 31.5134 64.1318 30.3317L64.0233 29.8478L64.4853 29.6834C66.662 28.9049 68.9039 28.3529 71.1737 28.021C73.4558 27.6891 75.7628 27.5868 78.0636 27.7108L78.5659 27.7388L78.5938 28.2412C78.7179 30.5426 78.6155 32.8533 78.2838 35.1329C77.9551 37.4033 77.4 39.6457 76.6217 41.8231L76.4543 42.2852L75.9737 42.1766C74.7923 41.913 73.583 41.7145 72.3458 41.578L71.8496 41.5284C73.1427 41.8882 74.4078 42.3224 75.6388 42.828L76.1628 43.042L75.9458 43.5631C75.4341 44.7851 74.845 45.9854 74.1814 47.1609L74.4946 46.7794C75.2729 45.8086 75.9861 44.8099 76.6372 43.7895L76.9008 43.3739L77.3473 43.5848C79.4403 44.5773 81.4186 45.7683 83.2512 47.1361C85.0962 48.5132 86.8016 50.0733 88.3458 51.7947L88.6807 52.1669L88.3458 52.5391C86.5969 54.4869 84.6373 56.2362 82.4977 57.7435C80.814 58.9314 79.0155 59.9767 77.121 60.8544C77.3225 60.9754 77.5055 61.1212 77.6605 61.2886C77.7628 61.4003 77.8527 61.5213 77.9303 61.6515C80.8977 60.8017 83.6946 59.5517 86.2621 57.9668C88.8667 56.3571 91.2388 54.4031 93.307 52.1669C91.3132 50.0082 89.0342 48.1131 86.5349 46.5375C83.9365 44.8967 81.0962 43.6065 78.0822 42.7256L77.4124 42.5302L77.7473 41.9192C79.2574 39.165 80.352 36.2402 81.031 33.2441C81.6822 30.3627 81.952 27.4131 81.8372 24.4728C78.9008 24.358 75.9489 24.6279 73.0683 25.2792C70.0729 25.9584 67.152 27.0533 64.3985 28.5638L63.7876 28.8987L63.5923 28.2288C62.7117 25.2141 61.4186 22.373 59.7814 19.7739C58.2062 17.274 56.3086 14.9943 54.1535 13C51.9954 14.9943 50.1008 17.274 48.5256 19.7739C46.8853 22.373 45.5954 25.2141 44.7147 28.2288L44.5194 28.8987L43.9085 28.5638C41.152 27.0533 38.231 25.9584 35.2388 25.2792C32.3582 24.6279 29.4093 24.358 26.4698 24.4728C26.355 27.4131 26.6248 30.3627 27.276 33.2441C27.955 36.2371 29.0496 39.1619 30.5597 41.9161L30.8946 42.5271L30.2248 42.7225C27.2109 43.6034 24.3705 44.8936 21.7721 46.5344C19.2729 48.11 16.9969 50.0082 15 52.1638C17.0682 54.4 19.4372 56.3571 22.045 57.9668C24.6093 59.5486 27.4093 60.7986 30.3768 61.6484C30.538 61.3786 30.755 61.1491 31.0062 60.9692C31.0651 60.9258 31.1209 60.8916 31.183 60.8544C29.2884 59.9767 27.4899 58.9314 25.8062 57.7435C23.6698 56.233 21.707 54.4869 19.9581 52.5391L19.6233 52.1669L19.9581 51.7947C21.5023 50.0733 23.2078 48.5132 25.0527 47.1361C26.8853 45.7683 28.8636 44.5773 30.9566 43.5848L31.4031 43.3708L31.6667 43.7895C32.3209 44.8192 33.0372 45.821 33.8062 46.7794L34.1194 47.164C33.4558 45.9885 32.8698 44.7882 32.355 43.5662L32.138 43.0451L32.662 42.8311C33.893 42.3286 35.1582 41.8944 36.4512 41.5315L35.9551 41.5811C34.7209 41.7145 33.5085 41.9161 32.3271 42.1797L31.8465 42.2883L31.6822 41.8262C30.9039 39.6488 30.3488 37.4064 30.0202 35.136C29.6915 32.8533 29.5861 30.5457 29.7101 28.2443L29.7349 27.7419L30.2372 27.7139C32.538 27.5899 34.8481 27.6922 37.1271 28.0241C39.3969 28.3529 41.6388 28.908 43.8155 29.6865L44.2775 29.8509L44.1721 30.3348C43.9085 31.5165 43.7101 32.7261 43.5737 33.9636L43.5209 34.4599C43.8806 33.1665 44.3147 31.9011 44.8202 30.6667L45.0341 30.1425L45.552 30.3596C46.231 30.6449 46.907 30.9551 47.5768 31.287C48.0264 31.5134 48.476 31.7491 48.9256 31.9972L48.9411 31.9507C48.4915 31.5847 48.0295 31.228 47.5551 30.8807C46.9814 30.4619 46.3861 30.0556 45.7783 29.6679L45.3628 29.4043L45.5737 28.9577C46.5659 26.8641 47.7597 24.8853 49.1272 23.0522C50.5039 21.2068 52.0636 19.5009 53.7845 17.9594L54.1566 17.6245L54.5287 17.9594C56.2496 19.504 57.8093 21.2099 59.1861 23.0522C60.5535 24.8853 61.7473 26.8641 62.7396 28.9577L62.9504 29.4012L62.5349 29.6648C61.9427 30.0432 61.3473 30.4464 60.7582 30.8807C60.2837 31.228 59.8217 31.5847 59.3721 31.9507L59.3876 31.9941C59.8372 31.746 60.2868 31.5072 60.7396 31.2839C61.3969 30.9551 62.0729 30.648 62.7613 30.3596L63.2791 30.1425L63.4931 30.6667C63.9954 31.898 64.4326 33.1665 64.7923 34.4599L64.7799 34.4568Z" fill="url(#paint0_linear_33454_361)"/>
<path d="M63.4031 54.1301C63.8434 53.6339 64.4326 52.874 64.9256 51.8442C65.0776 51.5279 67.3163 47.471 65.3814 44.1678C64.1442 42.0525 61.8589 40.5483 60.1256 38.8734C58.4326 37.2171 56.814 35.35 55.7473 33.2161C55.3845 32.4717 55.1582 31.6529 55.1768 30.8341C55.1768 30.4154 55.2543 30.0153 55.214 29.5965C55.1768 29.1592 55.0806 28.6444 54.6993 28.3962C54.4326 28.2256 54.0884 28.2442 53.9768 28.2442C53.8651 28.2442 53.6729 28.2629 53.4434 28.359C53.0434 28.5482 52.7768 28.9669 52.7768 29.4446V31.4823C52.7582 32.0716 52.6993 32.6454 52.5473 33.2161C52.0326 35.1205 50.6806 36.6247 49.2729 37.9398C48.4915 38.6625 47.7504 39.3883 46.8915 40.0334C45.9954 40.7188 45.121 41.4415 44.3396 42.3007C43.2543 43.4824 42.3799 44.9277 42.1318 46.5095C41.8651 48.2805 42.3613 50.0887 43.1985 51.6519C43.676 52.5483 44.2837 53.3454 44.9318 54.1673C45.2605 54.5457 45.7225 55.1009 46.2279 55.805C47.3225 57.3341 48.2527 58.6615 48.5132 60.4698C48.6589 61.4964 48.5256 62.2253 48.476 62.4703C48.3334 63.1557 48.0822 63.6861 47.8868 64.0335C45.521 62.5416 41.4868 60.4977 36.7861 60.5287C34.3923 60.5442 33.1334 61.0932 32.2558 61.8252C32.0698 61.9802 29.983 63.7668 30.4078 65.9379C30.6372 67.1041 31.4899 67.8608 31.8744 68.2051C32.6217 68.8689 33.4217 69.1945 34.293 69.4427C38.1039 70.5313 41.338 69.8428 41.338 69.8428C41.338 69.8428 44.8047 69.1046 47.9272 66.3194C48.014 66.2418 48.0791 66.1674 48.0791 66.1674C48.1008 66.1426 48.1318 66.1022 48.169 66.0588C48.2155 65.9999 48.2248 65.9844 48.231 65.9782C48.3241 65.8913 49.5148 66.6946 50.8481 68.4067C51.1241 68.7634 51.3256 69.0519 51.5086 69.3496C51.5086 69.3496 51.9148 70.0102 52.2124 70.7205C53.0465 72.7179 52.0574 76.9609 53.4682 77.8231C53.8558 78.0589 54.4512 78.0589 54.8388 77.8231C56.0853 77.0664 54.6837 74.1788 56.1132 70.7205C56.3551 70.1374 56.6031 69.7156 56.8171 69.3496C58.2962 66.8342 59.9644 65.8572 60.0543 65.941C60.0605 65.9472 60.0946 65.9937 60.1597 66.065C60.1845 66.0929 60.1876 66.0898 60.2062 66.1147C60.2496 66.1612 60.2651 66.1891 60.3055 66.2418C60.3055 66.2418 60.3241 66.2666 60.3768 66.3256C62.7024 68.9619 66.9442 69.849 66.9473 69.849C66.9473 69.849 70.259 70.5406 74.0295 69.4489C74.8698 69.2038 75.6636 68.8813 76.4109 68.2299C76.8078 67.8826 77.6512 67.1475 77.8962 66.0216C78.383 63.7854 76.107 61.8686 75.9923 61.7755C74.6155 60.6497 73.09 60.5907 71.2698 60.5194C71.2698 60.5194 65.4496 60.2899 60.4915 63.987C60.4605 64.0118 60.4543 64.0149 60.4543 64.0149C60.4202 64.0397 60.4171 64.0428 60.4171 64.0428C60.3427 64.0645 60.1504 63.4969 60.1504 63.4938C59.9613 62.9324 59.8651 62.644 59.8248 62.4238C59.7783 62.1756 59.7659 61.9864 59.7566 61.85C59.7101 61.1924 59.7783 60.6714 59.8062 60.4822C59.8651 60.0945 59.983 59.5703 60.321 58.7856C60.4605 58.463 60.8357 57.638 62.1876 55.7584C62.4698 55.3676 62.8822 54.8063 63.4062 54.1394L63.4031 54.1301ZM46.5721 54.1673C45.0899 52.4925 42.9907 49.577 43.6016 46.5312C43.9799 44.6486 44.8264 43.1536 47.2016 41.5035C50.1349 39.4658 52.9721 36.3983 54.1504 32.9711C54.169 32.9339 54.169 32.9711 54.1876 33.0083C54.1876 33.0083 54.1876 33.0641 54.2062 33.0641C54.814 34.8351 55.8807 36.358 57.0807 37.7878C58.9473 40.0551 61.5923 41.5594 63.4031 43.8825C63.7845 44.3787 64.1442 44.8719 64.3551 45.4643C64.3551 45.4643 64.6869 46.3482 64.6776 47.4648C64.6652 48.9722 63.6574 51.4845 61.6295 54.1301C61.3039 54.5023 60.8605 55.0482 60.3923 55.7491C59.6016 56.9339 58.9163 57.9606 58.5845 59.4617C57.9706 62.2315 59.0434 64.4243 59.0993 64.508C59.1582 64.5949 59.1768 64.7034 59.2419 64.7841C59.245 64.7872 59.2543 64.7996 59.2512 64.812C59.2481 64.8275 59.2264 64.8306 59.1923 64.8523C59.152 64.874 59.1241 64.9019 59.1179 64.9081C59.0993 64.9267 59.0931 64.936 59.0714 64.9485C59.062 64.9547 59.0558 64.9578 59.0434 64.964C59.0279 64.9733 59.0248 64.9795 59.0124 64.9888C59 65.0012 58.9969 64.9981 58.9659 65.0198C58.9287 65.0446 58.9101 65.057 58.8946 65.0756C58.8884 65.0818 58.8822 65.088 58.8729 65.0973C58.8574 65.1097 58.8481 65.1128 58.8357 65.119C58.8171 65.1283 58.8171 65.1346 58.7954 65.1532C58.7799 65.1656 58.7644 65.178 58.7303 65.1997C58.7024 65.2183 58.6806 65.2307 58.6806 65.2307C57.3256 66.0309 55.9241 68.2485 55.9241 68.2485C55.9241 68.2485 54.9597 69.7745 54.2248 71.9518C54.2217 71.9642 54.2155 71.9798 54.2155 71.9798C54.2155 71.9798 54.2093 71.9953 54.2062 72.0077C54.1938 72.0418 54.1783 72.1038 54.1783 72.1131C54.1566 72.2 54.1535 72.2186 54.1504 72.2186C54.1442 72.2186 54.1504 72.1783 54.138 72.1162C54.1287 72.0728 54.1225 72.0511 54.1132 72.0294C54.1101 72.0201 54.0977 72.0046 54.0946 71.9767C54.0946 71.9642 54.0946 71.9518 54.0946 71.9518C54.0946 71.9394 54.0915 69.9079 52.0574 67.7244C51.1024 66.6978 49.0062 64.8957 49.0496 64.812C49.0496 64.812 49.0651 64.7779 49.0868 64.7344C49.1117 64.6879 49.1241 64.6631 49.1241 64.6569C49.1334 64.6383 49.1396 64.6259 49.1396 64.6259C49.7225 63.4473 49.8682 62.0485 49.8682 62.0485C50.0202 60.5473 49.6915 59.3842 49.5055 58.7546C49.3287 58.156 49.1334 57.7187 49.0682 57.5729C48.7179 56.8068 48.3458 56.295 47.983 55.8019C47.6481 55.349 47.1861 54.7752 46.5752 54.1642L46.5721 54.1673ZM43.9241 67.5197C41.831 68.5091 39.3535 68.9495 37.2233 68.6828C34.2155 68.3199 32.538 67.3119 31.9302 66.1674C31.5861 65.5005 31.6264 64.7779 31.9861 64.111C32.4047 63.3884 33.2047 62.7401 34.3271 62.3214C37.0496 61.2917 41.5613 61.6173 47.1023 65.1594C46.2837 66.1302 45.1799 66.9118 43.9241 67.5197ZM76.3892 66.1457L76.3706 66.1643C75.7814 67.3057 74.1039 68.3168 71.0962 68.6797C68.9628 68.9464 66.4884 68.5091 64.3954 67.5166C63.1396 66.9056 62.014 66.1271 61.1954 65.1563C66.7551 61.6142 71.2481 61.2886 73.9892 62.3183C75.1117 62.737 75.9117 63.3853 76.3117 64.1079C76.5225 64.4522 76.6155 64.8306 76.6155 65.2121C76.6155 65.5347 76.538 65.8417 76.3861 66.1457H76.3892Z" fill="#10874C"/>
<path d="M138.603 45.8672H129.147L129.451 45.4792C129.672 45.1977 129.87 44.9162 130.037 44.6423C130.204 44.3913 130.319 44.1402 130.341 43.9424C130.341 43.8892 130.341 43.8283 130.372 43.7751C130.402 43.6381 130.402 43.524 130.402 43.4403C130.402 43.2197 130.372 42.961 130.288 42.6567L128.386 36.0533L120.215 39.355C119.964 40.3364 119.683 41.3102 119.379 42.322C119.325 42.5198 119.295 42.7708 119.295 43.0219C119.295 43.5544 119.432 44.0033 119.683 44.3913L120.801 45.8748H114C115.035 44.6728 115.735 43.5544 116.069 42.4894C120.124 28.3923 122.14 21.2259 122.14 20.9748C122.14 20.3586 121.942 19.7424 121.554 19.1261C121.303 18.7382 121.052 18.373 120.771 18.0078H126.56C127.374 18.0078 128.044 18.2284 128.576 18.6544C129.444 19.3848 130.113 20.5868 130.615 22.2909L136.549 42.6567C136.937 43.5773 137.553 44.5587 138.421 45.6466L138.588 45.8672H138.603ZM121.258 35.7946L127.549 33.2232L124.75 23.5994L121.25 35.7946H121.258Z" fill="#FF6F00"/>
<path d="M140.893 45.8672C141.312 45.3879 141.646 44.9466 141.928 44.4978C142.316 43.8816 142.574 43.1512 142.681 42.3448V31.9375L137.257 21.2487C136.724 20.3814 135.941 19.3772 134.906 18.2589L134.685 18.0078H143.579C143.214 18.5936 142.962 19.012 142.848 19.2631C142.734 19.5141 142.681 19.8489 142.681 20.214C142.681 20.5183 142.765 20.8607 142.932 21.2487L142.962 21.2791L146.766 28.8868L150.935 21.5834C151.24 20.9976 151.415 20.5184 151.415 20.0999C151.415 19.6511 151.194 18.9512 150.715 18.0306H157.516L157.014 18.4795C155.842 19.4837 154.945 20.4651 154.298 21.416L148.311 31.9375V42.3448C148.364 43.1284 148.615 43.8587 149.064 44.4978C149.094 44.5282 149.315 44.8325 149.733 45.4183C149.817 45.5553 149.931 45.6998 150.068 45.8672H140.893Z" fill="#FF6F00"/>
<path d="M165.481 45.1975C163.526 44.528 162.149 43.4934 161.343 42.1164C160.924 41.3861 160.726 40.5796 160.696 39.6515V21.5528C160.643 20.7388 160.392 20.0389 159.943 19.3998C159.912 19.3694 159.912 19.3161 159.89 19.2857C159.608 18.9205 159.273 18.4717 158.908 18H168.114C167.665 18.563 167.33 19.0346 167.109 19.3998C166.691 20.016 166.44 20.7464 166.326 21.5528V39.6515C166.356 40.9676 166.828 41.949 167.756 42.5576C168.403 42.9761 169.125 43.2043 169.939 43.2043C170.753 43.2043 171.476 42.9837 172.123 42.5576C173.043 41.911 173.553 40.96 173.576 39.6515V21.5528C173.462 20.7388 173.211 20.016 172.823 19.3998C172.625 19.0955 172.404 18.7836 172.153 18.4793C172.016 18.3423 171.902 18.175 171.788 18.0076H180.963L180.628 18.4793C180.377 18.7836 180.149 19.0955 179.959 19.3998C179.761 19.7041 179.594 20.016 179.457 20.3508C179.32 20.7159 179.236 21.1039 179.206 21.5528V39.6515C179.175 40.572 178.985 41.3861 178.559 42.1164C178.14 42.8163 177.555 43.4325 176.855 43.9651C176.124 44.4672 175.318 44.8856 174.39 45.1975C173.469 45.5018 172.602 45.6768 171.841 45.7605C171.088 45.8442 170.441 45.8746 169.939 45.8746C168.372 45.8746 166.889 45.654 165.489 45.2051L165.481 45.1975Z" fill="#FF6F00"/>
<path d="M200.499 45.8672C199.267 45.8672 198.232 45.1977 197.365 43.8283C197.114 43.4099 196.802 42.8241 196.445 42.0938L193.143 35.1555C191.994 35.8022 190.99 36.3271 190.062 36.776V42.3448C190.145 43.1588 190.366 43.8283 190.731 44.3837L191.85 45.8672H182.644L183.763 44.3837C184.128 43.8207 184.348 43.1512 184.432 42.3448V21.5302C184.379 21.0585 184.295 20.6629 184.151 20.3281C183.953 19.7956 183.588 19.1794 183.002 18.4567L182.637 18.0078H196.315C197.882 18.1219 199.252 18.5403 200.401 19.2403C202.166 20.2749 203.056 21.9562 203.056 24.2233C203.056 25.8437 202.325 27.525 200.903 29.2292C200.066 30.2106 199.031 31.1615 197.768 32.1353L202.158 41.196C203.223 43.4327 204.509 44.9999 205.992 45.8672H200.484H200.499ZM190.069 34.2578C191.302 33.6949 192.367 33.0558 193.234 32.3027C194.885 30.9028 196.034 29.2824 196.673 27.4337C197.091 26.2317 197.319 25.0525 197.319 23.9114C197.319 22.8463 197.152 22.0095 196.84 21.4237C196.505 20.8379 195.92 20.4423 195.075 20.2216C194.824 20.1684 193.143 20.138 190.069 20.138V34.2655V34.2578Z" fill="#FF6F00"/>
<path d="M242.205 45.867C241.505 45.867 240.889 45.6692 240.356 45.2812C239.71 44.8323 239.124 44.0487 238.591 42.9608C238.256 42.2914 236.773 39.2102 234.141 33.7555L231.76 37.1942V42.3446C231.813 43.1586 232.041 43.8281 232.406 44.3302C232.794 44.8628 233.159 45.3649 233.524 45.867H224.35L225.468 44.3835C225.833 43.7977 226.054 43.0978 226.137 42.3446V21.53C226.023 20.7159 225.772 19.9932 225.384 19.377C225.186 19.0727 224.966 18.7608 224.715 18.4565L224.35 18.0076H231.76V31.6026C237.131 23.8808 239.869 19.9095 239.953 19.6813C240.067 19.4607 240.12 19.2629 240.12 19.0651C240.12 18.7836 239.983 18.4184 239.702 18H245.575C244.822 18.7532 244.061 19.6204 243.278 20.6323L237.77 28.5747L243.871 41.1883C244.936 43.4021 246.222 44.9617 247.705 45.8594H242.197L242.205 45.867Z" fill="#FF6F00"/>
<path d="M271.106 45.8672H261.901L262.266 45.4183C262.517 45.114 262.746 44.8021 262.936 44.4978C263.134 44.1935 263.301 43.8816 263.438 43.5468C263.575 43.1817 263.659 42.7937 263.689 42.3448V34.3187L256.469 37.2553V42.3448C256.5 42.7937 256.583 43.1817 256.72 43.5468C256.857 43.8816 257.025 44.1935 257.222 44.4978C257.42 44.8021 257.641 45.114 257.892 45.4183L258.257 45.8672H249.052L249.417 45.4183C249.668 45.114 249.896 44.8021 250.086 44.4978C250.284 44.1935 250.452 43.8816 250.566 43.5468C250.703 43.1817 250.786 42.7937 250.847 42.3448V21.5302C250.794 21.0585 250.71 20.6629 250.566 20.3281C250.452 19.963 250.284 19.6587 250.086 19.3772C249.889 19.0729 249.668 18.761 249.417 18.4567L249.052 18.0078H258.257L257.892 18.4567C257.641 18.761 257.413 19.0729 257.222 19.3772C257.025 19.6587 256.857 19.963 256.72 20.3281C256.583 20.6933 256.5 21.0813 256.469 21.5302V34.0905L263.689 31.1539V21.5302C263.659 21.0585 263.575 20.6629 263.438 20.3281C263.301 19.963 263.134 19.6587 262.936 19.3772C262.738 19.0729 262.517 18.761 262.266 18.4567L261.901 18.0078H271.106L270.741 18.4567C270.49 18.761 270.262 19.0729 270.072 19.3772C269.874 19.6587 269.707 19.963 269.593 20.3281C269.456 20.6629 269.372 21.0585 269.311 21.5302V42.3448C269.364 42.7937 269.448 43.1817 269.593 43.5468C269.707 43.8816 269.874 44.1935 270.072 44.4978C270.27 44.8021 270.49 45.114 270.741 45.4183L271.106 45.8672Z" fill="#FF6F00"/>
<path d="M279.604 45.8672C280.023 45.3879 280.357 44.9466 280.639 44.4978C281.027 43.8816 281.286 43.1512 281.392 42.3448V31.9375L275.968 21.2487C275.435 20.3814 274.652 19.3772 273.617 18.2589L273.396 18.0078H282.29C281.925 18.5936 281.674 19.012 281.559 19.2631C281.445 19.5141 281.392 19.8489 281.392 20.214C281.392 20.5183 281.476 20.8607 281.643 21.2487L281.674 21.2791L285.477 28.8868L289.646 21.5834C289.951 20.9976 290.126 20.5184 290.126 20.0999C290.126 19.6511 289.905 18.9512 289.426 18.0306H296.227L295.725 18.4795C294.553 19.4837 293.656 20.4651 293.009 21.416L287.022 31.9375V42.3448C287.075 43.1284 287.326 43.8587 287.775 44.4978C287.805 44.5282 288.026 44.8325 288.444 45.4183C288.528 45.5553 288.642 45.6998 288.779 45.8672H279.604Z" fill="#FF6F00"/>
<path d="M316.532 45.8672H307.076L307.38 45.4792C307.601 45.1977 307.798 44.9162 307.966 44.6423C308.133 44.3913 308.247 44.1402 308.27 43.9424C308.27 43.8892 308.27 43.8283 308.301 43.7751C308.331 43.6381 308.331 43.524 308.331 43.4403C308.331 43.2197 308.301 42.961 308.217 42.6567L306.315 36.0533L298.144 39.355C297.893 40.3364 297.612 41.3102 297.307 42.322C297.254 42.5198 297.224 42.7708 297.224 43.0219C297.224 43.5544 297.361 44.0033 297.612 44.3913L298.73 45.8748H291.929C292.963 44.6728 293.663 43.5544 293.998 42.4894C298.053 28.3923 300.069 21.2259 300.069 20.9748C300.069 20.3586 299.871 19.7424 299.483 19.1261C299.232 18.7382 298.981 18.373 298.7 18.0078H304.489C305.303 18.0078 305.973 18.2284 306.505 18.6544C307.372 19.3848 308.042 20.5868 308.544 22.2909L314.478 42.6567C314.866 43.5773 315.482 44.5587 316.35 45.6466L316.517 45.8672H316.532ZM299.187 35.7946L305.478 33.2232L302.679 23.5994L299.179 35.7946H299.187Z" fill="#FF6F00"/>
<path d="M327.799 45.867H318.624L318.959 45.4181C319.545 44.665 319.94 44.0487 320.131 43.5466C320.267 43.1815 320.351 42.7935 320.382 42.3446V20.9974H315.847C315.262 20.9974 314.699 21.1648 314.113 21.53C313.725 21.7506 313.246 22.1462 312.66 22.6787L312.18 23.0667L313.299 18H333.109L334.228 23.0667L333.748 22.6787C333.163 22.1462 332.683 21.7582 332.295 21.53C331.732 21.1648 331.146 20.9974 330.561 20.9974H326.004V42.3446C326.057 42.7935 326.141 43.1815 326.285 43.5466C326.399 43.8814 326.567 44.1933 326.764 44.4976C326.848 44.5813 326.901 44.6954 326.985 44.8019C327.122 44.9997 327.289 45.2203 327.434 45.4181L327.799 45.867Z" fill="#FF6F00"/>
<path d="M345 45.8672H335.795L336.16 45.4183C336.411 45.114 336.639 44.8021 336.829 44.4978C337.019 44.1935 337.194 43.8816 337.309 43.5468C337.445 43.1817 337.529 42.7937 337.59 42.3448V21.5302C337.537 21.0585 337.453 20.6629 337.309 20.3281C337.194 19.963 337.027 19.6587 336.829 19.3772C336.631 19.0729 336.411 18.761 336.16 18.4567L335.795 18.0078H345L344.635 18.4567C344.384 18.761 344.155 19.0729 343.965 19.3772C343.767 19.6587 343.6 19.963 343.463 20.3281C343.326 20.6933 343.243 21.0813 343.212 21.5302V42.3448C343.243 42.7937 343.326 43.1817 343.463 43.5468C343.6 43.8816 343.767 44.1935 343.965 44.4978C344.163 44.8021 344.384 45.114 344.635 45.4183L345 45.8672Z" fill="#FF6F00"/>
<path d="M189.639 70.9588L187.216 69.8116L186.954 69.6347C186.643 69.4334 186.399 69.2076 186.228 68.9574L185.923 68.5181L185.843 68.0971V67.3588L185.721 67.4564L185.599 67.4991L185.52 67.5418L185.459 67.5601L184.782 67.7798L184.147 67.8408L183.354 67.8225C182.622 67.8225 182.012 67.5784 181.523 67.0842C180.938 66.5228 180.651 65.8639 180.651 65.1072C180.651 64.5886 180.852 64.131 181.255 63.7405C181.658 63.35 182.152 63.1059 182.738 63.0144L183.214 62.935H184.007C184.483 62.935 184.983 63.0754 185.496 63.3561L185.673 63.4537L185.831 63.5757V61.5194H179.821L179.363 60.4639H188.967L189.388 61.5194H187.491V68.5486L187.631 68.9879L187.851 69.3662L188.174 69.6469L190.639 70.9832H189.846L189.626 70.971L189.639 70.9588ZM185.837 64.8388L185.068 64.3811L184.416 64.0639L184.08 63.9662L183.781 63.8869C183.598 63.9113 183.445 63.9662 183.329 64.0456L182.896 64.3262C182.738 64.4483 182.591 64.6313 182.463 64.8876C182.384 65.0767 182.329 65.2842 182.304 65.5283C182.304 65.8761 182.372 66.2483 182.5 66.6449L182.658 66.8218L182.915 67.0598L183.189 67.1818L183.744 67.0232L184.355 66.7059C184.751 66.5045 185.129 66.2422 185.502 65.9066L185.837 65.5649V64.8449V64.8388Z" fill="#10874C"/>
<path d="M193.538 70.959L191.036 69.3299L190.456 68.9088L190.017 68.4695C189.962 68.4146 189.871 68.2682 189.736 68.0302L189.657 67.6092V61.5014H188.62L188.223 60.4458H193.037L193.434 61.5014H191.317V68.0485L191.457 68.4878L191.677 68.8661L192 69.1468L194.447 70.9651H193.654L193.538 70.9529V70.959Z" fill="#10874C"/>
<path d="M198.541 68.9757H197.748C197.193 68.9757 196.711 68.8964 196.308 68.7439C195.905 68.5913 195.454 68.3107 194.953 67.9018C194.453 67.493 194.099 67.0598 193.885 66.6022C193.782 66.3581 193.702 66.1201 193.647 65.8883C193.593 65.6564 193.568 65.3818 193.568 65.0768C193.568 64.5947 193.751 64.1737 194.123 63.8076C194.386 63.5391 194.819 63.3439 195.417 63.2218H197.723V61.5073H192.708L192.293 60.4517H201.037L201.476 61.5073H199.377V64.0029H197.29C196.961 64.0029 196.674 64.0395 196.436 64.1188C196.198 64.1981 195.978 64.3323 195.783 64.5154C195.411 64.8449 195.228 65.3147 195.228 65.9188C195.228 66.2483 195.295 66.5534 195.423 66.8401C195.557 67.1208 195.759 67.3649 196.039 67.5601L196.674 67.9934L197.388 68.213H197.565L197.485 68.0544V67.4381L197.626 67.1208C197.693 67.0171 197.766 66.9317 197.852 66.8829L198.157 66.7852H198.974C199.145 66.7852 199.285 66.8157 199.395 66.8829C199.676 66.9622 199.841 67.1452 199.896 67.432L199.975 67.8408C199.975 68.3107 199.774 68.634 199.377 68.811L198.98 68.9757H198.541ZM199.639 69.2137L199.902 69.6713L200.201 70.0679C200.323 70.19 200.475 70.2937 200.658 70.3852L202.037 71.2822H201.037L199.56 70.6232C199.224 70.489 198.932 70.2632 198.681 69.9459L198.321 69.409C198.242 69.2503 198.199 69.0978 198.199 68.9513L198.62 68.6889H199.42L199.639 69.2076V69.2137Z" fill="#10874C"/>
<path d="M205.936 70.959L203.435 69.3299L202.855 68.9088L202.416 68.4695C202.361 68.4146 202.269 68.2682 202.135 68.0302L202.056 67.6092V61.5014H201.018L200.622 60.4458H205.436L205.833 61.5014H203.715V68.0485L203.856 68.4878L204.075 68.8661L204.399 69.1468L206.845 70.9651H206.052L205.936 70.9529V70.959Z" fill="#10874C"/>
<path d="M225.468 70.9712H224.675L221.679 68.9333L221.239 68.4756L220.959 68.0363L220.879 67.6153V66.1204L220.544 66.1021H219.079L219.122 66.34V66.5414C219.122 67.2004 218.878 67.7496 218.396 68.1889C217.908 68.6221 217.322 68.8417 216.626 68.8417H215.827C215.492 68.8417 215.174 68.7746 214.869 68.6404C214.375 68.4024 213.85 67.9997 213.289 67.4445C212.807 66.9624 212.404 66.395 212.068 65.7299L212.087 65.5834L212.166 65.4187L212.288 65.2906H213.289C213.411 65.8824 213.832 66.4804 214.564 67.0844L215.284 67.5482C215.522 67.6702 215.778 67.7495 216.041 67.7922C216.492 67.7129 216.797 67.5299 216.962 67.2492C217.041 67.1821 217.133 67.0173 217.243 66.7489L217.34 66.1448C217.34 65.7421 217.279 65.4187 217.163 65.1807L216.986 64.9184L216.81 64.7597L216.687 64.8024L216.608 64.8451C216.37 64.8879 216.181 64.9489 216.047 65.0465L215.607 65.3272H214.808L213.972 64.479L213.93 64.3814L214.07 64.2228L214.552 64.0458L215.229 63.9055H216.065L216.364 63.7224L216.645 63.3929L216.822 63.0024L216.901 62.5875C216.901 62.1604 216.748 61.8309 216.443 61.599L216.126 61.416L215.766 61.3733H215.607L215.229 61.416C215.107 61.416 214.997 61.4648 214.887 61.5563L214.57 61.7943L214.332 61.9529L213.533 61.9346L212.917 61.0987L213.277 60.8363C213.38 60.757 213.539 60.6899 213.734 60.635L214.253 60.5129L214.814 60.4702H215.614C216.242 60.4702 216.907 60.7082 217.621 61.1902C218.256 61.654 218.573 62.1909 218.573 62.8072L218.512 63.2831C218.469 63.6126 218.335 63.8994 218.103 64.1373L217.713 64.479C217.859 64.5034 217.999 64.5584 218.134 64.6377L218.774 64.9794L219.195 65.1807L219.616 65.3028H219.818L220.056 65.2417L220.538 65.1014C220.58 65.0892 220.623 65.077 220.666 65.0587C220.715 65.0465 220.788 65.0038 220.898 64.9367V61.5258H218.823L218.384 60.4702H224.016L224.394 61.5258H222.557L222.594 68.079L222.734 68.5184L222.954 68.915L223.271 69.1773L225.718 70.9651L225.48 70.9895L225.468 70.9712Z" fill="#10874C"/>
<path d="M228.775 70.959L226.273 69.3299L225.693 68.9088L225.254 68.4695C225.199 68.4146 225.108 68.2682 224.973 68.0302L224.894 67.6092V61.5014H223.857L223.46 60.4458H228.275L228.671 61.5014H226.554V68.0485L226.694 68.4878L226.914 68.8661L227.237 69.1468L229.684 70.9651H228.891L228.775 70.9529V70.959Z" fill="#10874C"/>
<path d="M238.233 70.9102L235.304 68.9333L234.864 68.4756L234.584 68.0363L234.504 67.6153V67.1333L234.462 67.176L234.382 67.2187L233.784 67.3773L233.247 67.42L232.454 67.4017C232.015 67.4017 231.618 67.3407 231.258 67.2187C230.435 66.8831 229.849 66.3523 229.489 65.6139C229.318 65.2417 229.233 64.8512 229.233 64.4546L230.673 63.8567C231.112 63.6187 231.332 63.2587 231.332 62.7766C231.332 62.5509 231.319 62.4044 231.289 62.3373L231.167 61.9956C231.155 61.9285 231.087 61.837 230.965 61.715C230.923 61.6356 230.837 61.5685 230.703 61.5136H228.165L227.725 60.458H237.628L238.068 61.5136H236.152V68.0607L236.298 68.4817L236.53 68.86C236.603 68.9638 236.713 69.0675 236.872 69.159L239.343 70.9834H238.544L238.226 70.9224L238.233 70.9102ZM234.498 61.5075H232.125L232.564 62.0445L232.906 62.5631L233.028 62.8438L233.107 63.0817L233.168 63.3624V63.6248C233.168 63.7285 233.095 63.8567 232.948 64.0031L232.43 64.5034L231.728 64.9855L231.051 65.3272V65.5651C231.051 65.8031 231.155 66.0777 231.368 66.3827L231.63 66.6207L231.972 66.7427L232.473 66.6451L233.052 66.4682C233.626 66.3095 234.108 66.0167 234.51 65.5895V61.5136L234.498 61.5075Z" fill="#10874C"/>
<path d="M238.641 73.5461L237.75 73.8268C237.458 73.8817 237.268 73.9122 237.189 73.9244H235.95C235.487 73.9244 235.102 73.8512 234.809 73.7047C234.413 73.6254 233.961 73.4179 233.473 73.0763L232.497 72.3929C232.228 72.2159 231.923 71.9474 231.576 71.5874L231.753 71.3739H232.552C232.765 71.5874 233.046 71.8193 233.388 72.0573L234.346 72.643C234.718 72.8444 235.06 72.9847 235.365 73.0641L236.304 73.2837C236.426 73.2837 236.585 73.241 236.786 73.1617L237.207 72.9786C237.647 72.6918 237.866 72.3624 237.866 71.984L237.805 71.4471C237.763 71.2885 237.714 71.1603 237.647 71.0688L237.567 70.9468L237.525 70.9041L237.445 70.8857L237.244 70.9834L237.085 71.081L236.768 71.3495H235.95L235.133 70.7393L235.353 70.4769C235.395 70.4098 235.487 70.3488 235.633 70.2939L235.993 70.1535L236.433 70.1108H237.214C237.732 70.1108 238.269 70.3732 238.824 70.8919C239.294 71.3861 239.532 71.8315 239.532 72.2159C239.532 72.7895 239.233 73.2349 238.641 73.54V73.5461Z" fill="#10874C"/>
<path d="M247.824 70.9588L245.402 69.8116L245.14 69.6347C244.828 69.4334 244.584 69.2076 244.407 68.9574L244.102 68.5181L244.023 68.0971V67.3588L243.901 67.4564L243.779 67.4991L243.7 67.5418L243.639 67.5601L242.961 67.7798L242.327 67.8408L241.534 67.8225C240.801 67.8225 240.191 67.5784 239.703 67.0842C239.117 66.5228 238.83 65.8639 238.83 65.1072C238.83 64.5886 239.032 64.131 239.435 63.7405C239.837 63.35 240.332 63.1059 240.917 63.0144L241.393 62.935H242.186C242.662 62.935 243.163 63.0754 243.675 63.3561L243.852 63.4537L244.011 63.5757V61.5194H238.001L237.543 60.4639H247.147L247.568 61.5194H245.67V68.5486L245.811 68.9879L246.03 69.3662L246.354 69.6469L248.819 70.9832H248.026L247.806 70.971L247.824 70.9588ZM244.023 64.8388L243.254 64.3811L242.601 64.0639L242.266 63.9662L241.967 63.8869C241.784 63.9113 241.631 63.9662 241.515 64.0456L241.082 64.3262C240.923 64.4483 240.777 64.6313 240.649 64.8876C240.569 65.0767 240.515 65.2842 240.49 65.5283C240.49 65.8761 240.557 66.2483 240.685 66.6449L240.844 66.8218L241.1 67.0598L241.375 67.1818L241.93 67.0232L242.54 66.7059C242.937 66.5045 243.315 66.2422 243.687 65.9066L244.023 65.5649V64.8449V64.8388Z" fill="#10874C"/>
<path d="M246.647 57.6997L246.262 57.3519L246.061 57.2482L245.884 57.1688L245.707 57.2665L245.53 57.4068C245.463 57.4617 245.396 57.596 245.317 57.8095L245.237 58.3709C245.237 58.6393 245.243 58.8346 245.256 58.9627C245.268 59.0909 245.317 59.2556 245.396 59.457C245.487 59.7804 245.658 60.116 245.896 60.4638L245.06 60.4455H244.615L244.389 60.1465L244.102 59.5241L243.877 58.8651L243.755 58.3831V57.8827C243.755 57.6265 243.785 57.3885 243.846 57.1688C243.907 56.9492 244.011 56.7417 244.157 56.5587C244.45 56.1987 244.822 56.0156 245.274 56.0156H246.055C246.439 56.0156 246.775 56.1743 247.056 56.4977L247.397 56.9187C247.531 57.0895 247.647 57.297 247.757 57.5349V58.1329H246.952C246.872 57.9438 246.769 57.7973 246.647 57.7058V57.6997Z" fill="#10874C"/>
<path d="M244.072 60.5372C243.846 60.1345 243.608 59.7745 243.352 59.4511L242.516 58.4077C242.437 58.3162 242.327 58.2002 242.199 58.066C242.064 57.9318 241.918 57.8036 241.759 57.6816C241.546 57.523 241.344 57.4253 241.161 57.4009H240.081L239.044 55.9243H241.1C241.46 55.9243 242.083 56.4124 242.98 57.3826C243.7 58.1819 244.475 59.2375 245.317 60.5555L244.499 60.5372H244.078H244.072Z" fill="#10874C"/>
<path d="M252.852 68.9757H252.059C251.504 68.9757 251.022 68.8964 250.619 68.7439C250.216 68.5913 249.765 68.3107 249.264 67.9018C248.764 67.493 248.41 67.0598 248.197 66.6022C248.093 66.3581 248.014 66.1201 247.959 65.8883C247.904 65.6564 247.879 65.3818 247.879 65.0768C247.879 64.5947 248.062 64.1737 248.435 63.8076C248.697 63.5391 249.13 63.3439 249.728 63.2218H252.035V61.5073H247.019L246.604 60.4517H255.348L255.787 61.5073H253.688V64.0029H251.601C251.272 64.0029 250.985 64.0395 250.747 64.1188C250.509 64.1981 250.289 64.3323 250.094 64.5154C249.722 64.8449 249.539 65.3147 249.539 65.9188C249.539 66.2483 249.606 66.5534 249.734 66.8401C249.868 67.1208 250.07 67.3649 250.351 67.5601L250.985 67.9934L251.699 68.213H251.876L251.797 68.0544V67.4381L251.937 67.1208C252.004 67.0171 252.077 66.9317 252.163 66.8829L252.468 66.7852H253.285C253.456 66.7852 253.597 66.8157 253.706 66.8829C253.987 66.9622 254.152 67.1452 254.207 67.432L254.286 67.8408C254.286 68.3107 254.085 68.634 253.688 68.811L253.292 68.9757H252.852ZM253.944 69.2137L254.207 69.6713L254.506 70.0679C254.628 70.19 254.78 70.2937 254.963 70.3852L256.342 71.2822H255.342L253.865 70.6232C253.529 70.489 253.237 70.2632 252.986 69.9459L252.626 69.409C252.547 69.2503 252.504 69.0978 252.504 68.9513L252.925 68.6889H253.725L253.944 69.2076V69.2137Z" fill="#10874C"/>
<path d="M268.863 61.5075V64.2838L268.942 64.2411L269.04 64.18C269.369 63.9909 269.729 63.8811 270.12 63.8384H270.919C271.169 63.8384 271.401 63.9299 271.597 64.119C272.036 64.4241 272.396 65.0099 272.677 65.8702C272.768 66.2424 272.817 66.5475 272.817 66.7855C272.817 67.1455 272.713 67.5299 272.5 67.9387C272.365 68.2682 272.195 68.5733 271.981 68.8539L271.761 69.0919L270.962 69.0736L270.346 68.2072L270.767 67.6031L271.108 66.9807L271.328 66.4438L271.407 65.9617C271.407 65.6383 271.316 65.3394 271.127 65.0709L270.95 64.8695L270.773 64.7292C270.584 64.7963 270.449 64.8695 270.352 64.9488L269.931 65.2661L269.333 65.9251L268.875 66.6817V68.439L269.022 68.8356L269.254 69.2139L269.595 69.5312L272.066 71.3983H271.267L271.066 71.319L268.015 69.3238L267.576 68.8661L267.295 68.4085L267.216 67.9875V67.4078L267.118 67.4688H267.039L266.483 67.6275H264.995C264.86 67.6275 264.757 67.6214 264.677 67.6092C264.598 67.597 264.421 67.5482 264.14 67.4688C263.634 67.2126 263.286 66.7611 263.085 66.1021C262.993 65.7299 262.944 65.4248 262.944 65.199C262.944 64.6621 263.103 64.2044 263.42 63.8139C263.579 63.6248 263.774 63.4845 263.994 63.3807C264.22 63.2831 264.476 63.2282 264.769 63.2282H265.562C265.934 63.2282 266.233 63.2709 266.459 63.3624C266.697 63.399 266.941 63.5028 267.197 63.6675L267.216 61.5136H262.243L261.846 60.458H273.445L273.885 61.5136H268.875L268.863 61.5075ZM267.203 64.9794L266.63 64.54L266.154 64.2411L265.873 64.1434L265.574 64.0641C265.245 64.1312 264.988 64.2655 264.799 64.4668C264.47 64.7231 264.305 65.077 264.305 65.5346C264.305 65.9373 264.427 66.2912 264.677 66.6024L264.97 66.8465L265.324 66.9868C265.507 66.9624 265.623 66.9258 265.678 66.8831L266.068 66.7427L266.654 66.395L267.203 65.9678V64.9916V64.9794Z" fill="#10874C"/>
<path d="M278.473 70.959L275.972 69.3299L275.392 68.9088L274.953 68.4695C274.898 68.4146 274.806 68.2682 274.672 68.0302L274.593 67.6092V61.5014H273.555L273.159 60.4458H277.973L278.37 61.5014H276.252V68.0485L276.393 68.4878L276.612 68.8661L276.936 69.1468L279.382 70.9651H278.589L278.473 70.9529V70.959Z" fill="#10874C"/>
<path d="M171.565 65.278C171.565 65.5037 171.382 65.6929 171.151 65.6929H168.289L167.471 66.7241C167.331 66.901 167.068 66.9315 166.892 66.7912C166.849 66.7607 166.818 66.718 166.794 66.6753L166.007 65.3329L164.945 70.0068C164.902 70.1959 164.738 70.3302 164.542 70.3302C164.542 70.3302 164.542 70.3302 164.536 70.3302C164.341 70.3302 164.176 70.1837 164.14 69.9946L163.035 64.0393L161.479 67.4502C161.382 67.6576 161.138 67.7491 160.93 67.6576C160.845 67.621 160.778 67.5539 160.735 67.4685L159.881 65.7844H156.415C156.189 65.7844 156 65.6013 156 65.3695C156 65.1376 156.183 64.9546 156.415 64.9546H160.137C160.296 64.9546 160.436 65.04 160.509 65.1803L161.089 66.3213L162.834 62.5017C162.932 62.2942 163.176 62.2027 163.383 62.2942C163.505 62.3492 163.597 62.4651 163.621 62.5932L164.603 67.8651L165.452 64.1308C165.5 63.9051 165.726 63.7708 165.946 63.8197C166.056 63.8441 166.153 63.9173 166.208 64.0149L167.221 65.7356L167.788 65.0217C167.868 64.9241 167.984 64.863 168.112 64.863H171.169C171.395 64.863 171.584 65.0461 171.584 65.278H171.565Z" fill="#10874C"/>
<path d="M302.77 65.278C302.77 65.5037 302.587 65.6929 302.355 65.6929H299.494L298.676 66.7241C298.536 66.901 298.273 66.9315 298.096 66.7912C298.054 66.7607 298.023 66.718 297.999 66.6753L297.212 65.3329L296.15 70.0068C296.107 70.1959 295.942 70.3302 295.747 70.3302C295.747 70.3302 295.747 70.3302 295.741 70.3302C295.546 70.3302 295.381 70.1837 295.344 69.9946L294.24 64.0393L292.684 67.4502C292.586 67.6576 292.342 67.7491 292.135 67.6576C292.05 67.621 291.982 67.5539 291.94 67.4685L291.085 65.7844H287.62C287.394 65.7844 287.205 65.6013 287.205 65.3695C287.205 65.1376 287.388 64.9546 287.62 64.9546H291.342C291.5 64.9546 291.641 65.04 291.714 65.1803L292.294 66.3213L294.039 62.5017C294.136 62.2942 294.38 62.2027 294.588 62.2942C294.71 62.3492 294.801 62.4651 294.826 62.5932L295.808 67.8651L296.656 64.1308C296.705 63.9051 296.931 63.7708 297.151 63.8197C297.26 63.8441 297.358 63.9173 297.413 64.0149L298.426 65.7356L298.993 65.0217C299.073 64.9241 299.189 64.863 299.317 64.863H302.374C302.599 64.863 302.789 65.0461 302.789 65.278H302.77Z" fill="#10874C"/>
<defs>
<linearGradient id="paint0_linear_33454_361" x1="54.1504" y1="61.6484" x2="54.1504" y2="12.9969" gradientUnits="userSpaceOnUse">
<stop stop-color="#FF6F00"/>
<stop offset="1" stop-color="#FFC700"/>
</linearGradient>
</defs>
</svg>
