<svg width="25" height="25" viewBox="0 0 25 25" fill="none" xmlns="http://www.w3.org/2000/svg">
<path d="M24.458 19.0714C23.6777 18.417 19.1009 15.5188 18.3402 15.6518C17.983 15.7152 17.7098 16.0196 16.9786 16.892C16.6404 17.3213 16.269 17.7235 15.8679 18.0946C15.1328 17.9171 14.4214 17.6534 13.7482 17.3089C11.1083 16.0237 8.97556 13.8903 7.69107 11.25C7.34664 10.5768 7.08291 9.86537 6.90536 9.13036C7.27654 8.72919 7.67867 8.35781 8.10804 8.01964C8.97946 7.28839 9.28482 7.01696 9.34821 6.65804C9.48125 5.89554 6.58036 1.32054 5.92857 0.540179C5.65536 0.216964 5.40714 0 5.08929 0C4.16786 0 0 5.15357 0 5.82143C0 5.87589 0.0892856 11.2411 6.86518 18.1348C13.7589 24.9107 19.1241 25 19.1786 25C19.8464 25 25 20.8321 25 19.9107C25 19.5929 24.783 19.3446 24.458 19.0714Z" fill="#0A512E"/>
<path d="M18.6752 10.7194C18.7572 11.2053 19.1492 11.6072 19.6419 11.6072V11.6072C20.1354 11.6072 20.541 11.2053 20.479 10.7158C20.2806 9.15086 19.5685 7.68601 18.4413 6.5588C17.3141 5.43159 15.8492 4.7195 14.2843 4.52112C13.7948 4.45906 13.3929 4.86469 13.3929 5.35816V5.35816C13.3929 5.85089 13.7948 6.24288 14.2807 6.32494C15.3716 6.50921 16.3868 7.02811 17.1794 7.82071C17.972 8.61331 18.4909 9.62851 18.6752 10.7194Z" fill="#0A512E"/>
<path d="M23.1729 10.7165C23.2181 11.2072 23.6134 11.6071 24.1061 11.6071V11.6071C24.5996 11.6071 25.0031 11.2061 24.9647 10.7141C24.7496 7.96369 23.561 5.36808 21.5965 3.40357C19.6319 1.43905 17.0363 0.250455 14.2859 0.0353702C13.7939 -0.00310567 13.3929 0.400378 13.3929 0.893898V0.893898C13.3929 1.3866 13.7929 1.78197 14.2835 1.82716C16.5606 2.03689 18.7042 3.03564 20.3343 4.66574C21.9644 6.29583 22.9631 8.43943 23.1729 10.7165Z" fill="#0A512E"/>
</svg>
