<svg xmlns="http://www.w3.org/2000/svg" version="1.1" xmlns:xlink="http://www.w3.org/1999/xlink" width="512" height="512" x="0" y="0" viewBox="0 0 256 256" style="enable-background:new 0 0 512 512" xml:space="preserve" class=""><g><path fill="#ffffff" d="M59.118 131.46v-16.889l3.393 3.393c.488.488 1.128.732 1.768.732s1.28-.244 1.768-.732a2.5 2.5 0 0 0 0-3.535l-7.661-7.66a2.498 2.498 0 0 0-3.535 0l-7.661 7.66a2.5 2.5 0 1 0 3.536 3.535l3.393-3.393v16.889c-8.409 1.219-14.896 8.454-14.896 17.195 0 9.593 7.804 17.396 17.396 17.396s17.396-7.804 17.396-17.396c-.001-8.74-6.488-15.976-14.897-17.195zm-2.5 29.592c-6.835 0-12.396-5.562-12.396-12.396s5.561-12.396 12.396-12.396 12.396 5.561 12.396 12.396-5.561 12.396-12.396 12.396zM216.778 125.548c0-9.593-7.804-17.396-17.396-17.396s-17.396 7.804-17.396 17.396c0 8.741 6.487 15.976 14.896 17.195v7.77h-5.307a2.5 2.5 0 1 0 0 5h5.307v9.119a2.5 2.5 0 1 0 5 0v-9.119h5.307a2.5 2.5 0 1 0 0-5h-5.307v-7.77c8.409-1.219 14.896-8.454 14.896-17.195zm-29.792 0c0-6.835 5.561-12.396 12.396-12.396s12.396 5.562 12.396 12.396-5.561 12.396-12.396 12.396-12.396-5.561-12.396-12.396z" opacity="1" data-original="#f9b087"></path><g fill="#846f75"><path d="M50.77 89.902a2.5 2.5 0 0 0 2.5-2.5c0-18.519 15.066-33.584 33.584-33.584h23.295a2.5 2.5 0 0 0 2.402-1.808c1.974-6.847 8.327-11.628 15.449-11.628s13.475 4.781 15.449 11.628a2.502 2.502 0 0 0 2.402 1.808h23.295c18.518 0 33.584 15.065 33.584 33.584a2.5 2.5 0 1 0 5 0c0-21.275-17.309-38.584-38.584-38.584h-21.505C144.518 40.82 136.696 35.383 128 35.383s-16.518 5.438-19.641 13.436H86.854c-21.275 0-38.584 17.309-38.584 38.584a2.5 2.5 0 0 0 2.5 2.499z" fill="#ffffff" opacity="1" data-original="#846f75" class=""></path><path d="M169.146 59.128h-23.295a2.5 2.5 0 0 0-2.402 1.808c-1.974 6.847-8.327 11.629-15.449 11.629s-13.475-4.782-15.449-11.629a2.502 2.502 0 0 0-2.402-1.808H86.854c-15.59 0-28.274 12.684-28.274 28.274a2.5 2.5 0 1 0 5 0c0-12.834 10.44-23.274 23.274-23.274h21.505c3.124 7.998 10.945 13.437 19.641 13.437s16.518-5.438 19.641-13.437h21.505c12.833 0 23.274 10.44 23.274 23.274a2.5 2.5 0 1 0 5 0c0-15.59-12.684-28.274-28.274-28.274z" fill="#ffffff" opacity="1" data-original="#846f75" class=""></path><path d="M154.291 201.731h-16.848V81.78a2.5 2.5 0 1 0-5 0v119.951h-8.886V81.78a2.5 2.5 0 1 0-5 0v119.951h-16.848c-5.207 0-9.443 4.236-9.443 9.442 0 5.207 4.236 9.443 9.443 9.443h52.582c5.207 0 9.443-4.236 9.443-9.443 0-5.205-4.236-9.442-9.443-9.442zm0 13.886h-52.582a4.448 4.448 0 0 1-4.443-4.443 4.448 4.448 0 0 1 4.443-4.442h52.582a4.448 4.448 0 0 1 4.443 4.442 4.448 4.448 0 0 1-4.443 4.443zM56.618 94.248c-23.046 0-41.795 18.75-41.795 41.796s18.75 41.795 41.795 41.795 41.795-18.749 41.795-41.795-18.749-41.796-41.795-41.796zm0 78.591c-20.289 0-36.795-16.506-36.795-36.795s16.506-36.796 36.795-36.796 36.795 16.507 36.795 36.796-16.506 36.795-36.795 36.795zM199.382 94.248c-23.046 0-41.795 18.75-41.795 41.796s18.75 41.795 41.795 41.795 41.795-18.749 41.795-41.795-18.749-41.796-41.795-41.796zm0 78.591c-20.289 0-36.795-16.506-36.795-36.795s16.506-36.796 36.795-36.796 36.795 16.507 36.795 36.796-16.506 36.795-36.795 36.795z" fill="#ffffff" opacity="1" data-original="#846f75" class=""></path></g><path fill="#ffffff" d="M128 65.757c-5.207 0-9.443-4.235-9.443-9.442s4.236-9.443 9.443-9.443 9.443 4.236 9.443 9.443-4.236 9.442-9.443 9.442zm0-13.886a4.448 4.448 0 0 0-4.443 4.443c0 2.449 1.993 4.442 4.443 4.442s4.443-1.993 4.443-4.442A4.448 4.448 0 0 0 128 51.871z" opacity="1" data-original="#ebe7f2" class=""></path></g></svg>