<svg xmlns="http://www.w3.org/2000/svg" version="1.1" xmlns:xlink="http://www.w3.org/1999/xlink" width="512" height="512" x="0" y="0" viewBox="0 0 128 128" style="enable-background:new 0 0 512 512" xml:space="preserve" class=""><g><path d="M114.834 8.285C106.3 3.56 96.948 6.789 90.7 11.613A63.6 63.6 0 0 0 64 5.25a63.594 63.594 0 0 0-26.7 6.363C31.051 6.79 21.7 3.558 13.166 8.285a14.747 14.747 0 0 0-7.516 16.5A27.247 27.247 0 0 0 11.936 36.3a13.313 13.313 0 0 0 4.145 10.293 14.107 14.107 0 0 0 7.865 4.1 11.056 11.056 0 0 0 1.543.111 8.373 8.373 0 0 0 6.052-2.38c3.757-3.756 2.935-10.692-1.832-15.459-3.38-3.38-7.844-4.765-11.5-3.953a16.623 16.623 0 0 1-3.306-6.368 5.252 5.252 0 0 1 2.866-6.044c3.675-2.037 9.953-1.511 15.69 4.247q.37.37.734.728a18.1 18.1 0 0 1 5.429 12.906 42.388 42.388 0 0 1-1.7 11.33c-4.206 14.844-.58 21.529 4.011 29.992C46.7 84.6 52.648 95.563 52.648 121a1.75 1.75 0 0 0 3.5 0c0-26.325-6.178-37.716-11.143-46.869-4.539-8.367-7.537-13.9-3.72-27.369a45.86 45.86 0 0 0 1.837-12.271 21.62 21.62 0 0 0-6.478-15.418c-.235-.229-.469-.463-.706-.7-7.023-7.05-15.039-7.512-19.865-4.839a8.764 8.764 0 0 0-4.578 9.9A19.482 19.482 0 0 0 14.96 30.5a7.754 7.754 0 0 0-.711.625 7.649 7.649 0 0 0-1 1.25A22.322 22.322 0 0 1 9.06 24a11.315 11.315 0 0 1 5.8-12.647c7.408-4.1 15.752-.794 21.091 3.669a1.747 1.747 0 0 0 1.906.221A60.362 60.362 0 0 1 64 8.75a60.362 60.362 0 0 1 26.142 6.488 1.747 1.747 0 0 0 1.906-.221c5.341-4.462 13.683-7.771 21.091-3.669a11.313 11.313 0 0 1 5.8 12.652 22.3 22.3 0 0 1-4.193 8.384 7.649 7.649 0 0 0-.995-1.25 7.889 7.889 0 0 0-.711-.625 19.482 19.482 0 0 0 3.465-7.073 8.765 8.765 0 0 0-4.578-9.9c-4.825-2.672-12.84-2.211-19.867 4.839-.235.237-.469.471-.7.7a21.615 21.615 0 0 0-6.477 15.417 45.873 45.873 0 0 0 1.837 12.272c3.817 13.472.819 19-3.72 27.368C78.03 83.284 71.852 94.675 71.852 121a1.75 1.75 0 0 0 3.5 0c0-25.437 5.944-36.4 10.719-45.2 4.591-8.463 8.217-15.148 4.011-29.991a42.4 42.4 0 0 1-1.7-11.331 18.1 18.1 0 0 1 5.428-12.9q.366-.358.734-.729c5.738-5.759 12.015-6.285 15.691-4.247a5.252 5.252 0 0 1 2.864 6.044 16.634 16.634 0 0 1-3.306 6.367c-3.655-.812-8.12.573-11.5 3.953-4.767 4.767-5.589 11.7-1.832 15.459a8.373 8.373 0 0 0 6.052 2.38 11.056 11.056 0 0 0 1.543-.111 14.107 14.107 0 0 0 7.865-4.1 13.313 13.313 0 0 0 4.143-10.294 27.247 27.247 0 0 0 6.286-11.509 14.747 14.747 0 0 0-7.516-16.506zm-87.6 27.15c3.345 3.346 4.184 8.159 1.832 10.51-2.392 2.392-7.107 1.572-10.51-1.832-3.345-3.345-4.184-8.158-1.832-10.51a4.983 4.983 0 0 1 3.61-1.37 10.19 10.19 0 0 1 6.9 3.202zm82.21 8.678c-3.4 3.4-8.12 4.223-10.51 1.832-2.352-2.351-1.513-7.164 1.832-10.51 3.4-3.4 8.118-4.224 10.51-1.832 2.352 2.352 1.513 7.165-1.832 10.51z" fill="#ffffff" opacity="1" data-original="#000000" class=""></path><path d="M80.019 48.185c-2.265-10.3-.968-17.451.517-21.63a4.711 4.711 0 0 0-.625-4.332 4.78 4.78 0 0 0-3.9-1.961 10.6 10.6 0 0 1-1.735-.1 15.432 15.432 0 0 1-3.568-1.051 16.489 16.489 0 0 0-13.42 0 15.432 15.432 0 0 1-3.568 1.051 10.767 10.767 0 0 1-1.736.1 4.761 4.761 0 0 0-3.9 1.961 4.711 4.711 0 0 0-.625 4.332c1.485 4.179 2.782 11.325.517 21.63-2.43 11.061-.428 15.734 2.343 22.2 3.473 8.1 8.228 19.2 8.228 50.614a1.75 1.75 0 0 0 3.5 0c0-32.132-4.919-43.611-8.511-51.992C50.841 62.7 49.21 58.9 51.4 48.936c2.443-11.115 1-18.943-.638-23.553a1.207 1.207 0 0 1 .168-1.114 1.191 1.191 0 0 1 .966-.508h.024a14.324 14.324 0 0 0 2.3-.135 18.6 18.6 0 0 0 4.338-1.251 13.037 13.037 0 0 1 10.892 0 18.6 18.6 0 0 0 4.338 1.251 14.332 14.332 0 0 0 2.3.135h.012a1.194 1.194 0 0 1 .967.508 1.207 1.207 0 0 1 .168 1.114c-1.639 4.61-3.081 12.438-.638 23.553 2.189 9.963.558 13.768-2.142 20.072-3.592 8.381-8.511 19.86-8.511 51.992a1.75 1.75 0 0 0 3.5 0c0-31.414 4.755-42.511 8.228-50.614 2.775-6.467 4.777-11.14 2.347-22.201z" fill="#ffffff" opacity="1" data-original="#000000" class=""></path></g></svg>