<svg xmlns="http://www.w3.org/2000/svg" version="1.1" xmlns:xlink="http://www.w3.org/1999/xlink" width="512" height="512" x="0" y="0" viewBox="0 0 512 512" style="enable-background:new 0 0 512 512" xml:space="preserve" class=""><g><path d="M74.393 512.848a8 8 0 0 1-7.476-10.844c8.692-22.874 24.33-61.117 27.927-69.892-1.001-11-5.29-62.751.41-85.147 6.473-25.434 62.943-88.806 74.568-95.135 6.102-3.321 13.966-2.73 21.036 1.583 6.305 3.846 20.885 16.389 20.108 49.694-.663 28.347-6.118 52.061-16.214 70.485-6.657 12.149-10.053 26.378-13.05 38.932-3.13 13.115-5.833 24.442-11.667 31.971-6.863 8.86-12.532 14.72-15.634 17.715l-3.154 43.216a8 8 0 0 1-15.958-1.166l3.383-46.358a8.002 8.002 0 0 1 2.783-5.5c.054-.046 6.769-5.878 15.931-17.706 3.719-4.802 6.164-15.044 8.752-25.887 3.23-13.534 6.892-28.873 14.581-42.906 8.853-16.156 13.647-37.41 14.249-63.17.477-20.405-6.116-31.801-12.445-35.662-2.485-1.516-4.417-1.534-5.053-1.189-2.828 1.698-17.233 15.808-34.523 36.633-17.944 21.612-29.978 39.704-32.189 48.395-4.623 18.167-1.426 65.088.195 81.635a8.01 8.01 0 0 1-.563 3.823c-.187.454-18.779 45.689-28.519 71.318a8.001 8.001 0 0 1-7.479 5.16zM49.103 429.218a25.004 25.004 0 0 1-14.716-4.773c-5.437-3.94-9.013-9.761-10.071-16.391s.529-13.275 4.469-18.711a25.164 25.164 0 0 1 9.532-7.937c.11-.056.222-.108.334-.159l27.333-12.209a8.001 8.001 0 0 1 11.22 8.131l-3.093 29.776a25.165 25.165 0 0 1-4.621 11.896c-4.911 6.776-12.597 10.376-20.387 10.376zM45.37 395.77l-.089.042a9.012 9.012 0 0 0-3.541 2.92c-2.956 4.078-2.042 9.801 2.036 12.757 4.079 2.956 9.802 2.042 12.758-2.036a9.003 9.003 0 0 0 1.684-4.365l1.64-15.79-14.488 6.471zM30.581 368.646c-12.754 0-24.677-8.053-28.973-20.79C-1 340.124-.44 331.839 3.184 324.527c3.624-7.311 9.878-12.774 17.61-15.381a30.588 30.588 0 0 1 15.079-1.135c.124.019.248.041.371.065l38.624 7.763a8 8 0 0 1 4.428 13.13l-26.035 29.568a7.02 7.02 0 0 1-.261.282 30.58 30.58 0 0 1-22.419 9.827zm-.048-45.108c-1.56 0-3.108.257-4.627.769a14.453 14.453 0 0 0-8.386 7.326 14.447 14.447 0 0 0-.75 11.11c2.563 7.602 10.834 11.7 18.437 9.138a14.338 14.338 0 0 0 6.12-4.004l.082-.089 16.723-18.993-24.816-4.988-.111-.02a14.488 14.488 0 0 0-2.67-.25zM80.138 300.637a7.995 7.995 0 0 1-1.888-.226l-24.578-5.969a22.504 22.504 0 0 1-9.999-5.527 22.329 22.329 0 0 1-6.956-15.734 22.326 22.326 0 0 1 6.207-16.044c8.554-8.968 22.81-9.305 31.778-.749a22.503 22.503 0 0 1 5.992 9.728l7.12 24.27a7.998 7.998 0 0 1-7.677 10.252zm-22.5-21.697 10.923 2.653-3.165-10.79-.023-.075a6.374 6.374 0 0 0-1.714-2.764 6.483 6.483 0 0 0-9.157.216 6.436 6.436 0 0 0-1.789 4.624 6.437 6.437 0 0 0 2.004 4.533 6.384 6.384 0 0 0 2.842 1.583l.08.021z" fill="#ffffff" opacity="1" data-original="#000000" class=""></path><path d="M256.53 441.6c-26.118 0-57.09-17.736-82.852-47.444a8 8 0 0 1 .803-11.285 8 8 0 0 1 11.285.803c22.765 26.253 49.219 41.926 70.764 41.926 21.179 0 47.277-15.267 69.812-40.838a7.998 7.998 0 0 1 11.291-.713 8 8 0 0 1 .713 11.291c-25.908 29.399-55.729 46.26-81.816 46.26zM32.008 512.847a8 8 0 0 1-4.11-14.869c8.777-5.244 25.21-11.262 50.239-18.397a8 8 0 1 1 4.387 15.387c-29.074 8.289-41.291 13.681-46.419 16.746a7.962 7.962 0 0 1-4.095 1.133z" fill="#ffffff" opacity="1" data-original="#000000" class=""></path><path d="M147.254 478.386a8.004 8.004 0 0 1-7.791-6.215 8 8 0 0 1 6.011-9.585 2082.112 2082.112 0 0 1 34.077-7.51l6.895-51.425a8 8 0 0 1 15.858 2.126l-7.647 57.036a8 8 0 0 1-6.325 6.774c-.167.034-16.947 3.475-39.284 8.594a8.016 8.016 0 0 1-1.794.204zM479.992 512.847a7.96 7.96 0 0 1-4.095-1.134c-5.056-3.021-17.048-8.331-45.464-16.473a8 8 0 1 1 4.407-15.381c24.485 7.016 40.599 12.942 49.263 18.118a8 8 0 0 1-4.11 14.869zM364.532 478.386a8 8 0 0 1-1.812-.208c-24.511-5.677-38.872-8.554-39.014-8.582a8 8 0 0 1-6.363-6.782l-7.408-55.246a8 8 0 0 1 15.858-2.126l6.654 49.623c6.399 1.346 18.061 3.861 33.883 7.526a8 8 0 0 1 5.988 9.599 8.003 8.003 0 0 1-7.787 6.197zM379.83 311.056a8 8 0 0 1-5.49-13.82c10.121-9.546 33.661-35.15 33.661-66.659 0-32.352-9.36-52.204-32.307-68.522a8 8 0 0 1-1.883-11.156 8 8 0 0 1 11.156-1.883c27.36 19.458 39.034 43.85 39.034 81.562s-27.052 67.328-38.683 78.298a7.97 7.97 0 0 1-5.488 2.18z" fill="#ffffff" opacity="1" data-original="#000000" class=""></path><path d="M437.607 512.848a8 8 0 0 1-7.479-5.16c-9.74-25.629-28.333-70.864-28.519-71.318a8.01 8.01 0 0 1-.563-3.823c1.622-16.546 4.818-63.468.195-81.635-2.212-8.69-14.245-26.782-32.189-48.395-17.29-20.825-31.695-34.935-34.569-36.659-.586-.319-2.52-.302-5.007 1.215-6.329 3.861-12.921 15.257-12.445 35.663.602 25.76 5.396 47.014 14.249 63.169 7.689 14.034 11.351 29.373 14.581 42.906 2.588 10.843 5.033 21.085 8.752 25.888 9.163 11.827 15.877 17.66 15.944 17.717a8.042 8.042 0 0 1 2.77 5.489l3.383 46.358a8.001 8.001 0 0 1-15.958 1.166l-3.154-43.216c-3.102-2.995-8.771-8.855-15.634-17.715-5.833-7.53-8.536-18.856-11.667-31.972-2.997-12.554-6.393-26.783-13.05-38.932-10.096-18.424-15.551-42.139-16.214-70.485-.777-33.306 13.803-45.849 20.108-49.695 7.07-4.314 14.935-4.905 21.035-1.583 11.626 6.329 68.096 69.701 74.569 95.134 5.699 22.396 1.411 74.147.41 85.147 3.597 8.774 19.235 47.018 27.927 69.892a8 8 0 0 1-7.476 10.844zM462.897 429.218c-7.79 0-15.475-3.601-20.385-10.376a25.162 25.162 0 0 1-4.622-11.897l-3.093-29.775a7.998 7.998 0 0 1 11.22-8.131l27.333 12.208a25.166 25.166 0 0 1 9.866 8.095c3.94 5.437 5.527 12.082 4.469 18.711s-4.635 12.451-10.071 16.391a24.998 24.998 0 0 1-14.716 4.774zm-9.114-24.13.011.09a9.003 9.003 0 0 0 1.673 4.275c2.955 4.078 8.679 4.992 12.758 2.035 4.079-2.956 4.992-8.679 2.036-12.757a9.012 9.012 0 0 0-3.541-2.92l-.09-.042-14.487-6.471zM481.419 368.646c-3.23 0-6.513-.517-9.738-1.604A30.583 30.583 0 0 1 459 358.819a7.806 7.806 0 0 1-.261-.283l-26.035-29.568a8 8 0 0 1 4.428-13.13l38.624-7.763c.124-.025.247-.046.371-.065a30.596 30.596 0 0 1 15.078 1.135c15.963 5.384 24.57 22.749 19.187 38.711-4.295 12.736-16.22 20.79-28.973 20.79zm-10.827-20.859.082.089a14.338 14.338 0 0 0 6.12 4.004c7.601 2.565 15.873-1.536 18.437-9.138 1.242-3.683.976-7.628-.75-11.11s-4.704-6.084-8.387-7.326a14.331 14.331 0 0 0-7.296-.52l-.111.02-24.816 4.988 16.723 18.993zM431.862 300.637a8.002 8.002 0 0 1-7.677-10.252l7.12-24.27a22.516 22.516 0 0 1 5.992-9.728c8.968-8.555 23.224-8.219 31.778.749a22.327 22.327 0 0 1 6.207 16.044 22.325 22.325 0 0 1-6.957 15.734 22.51 22.51 0 0 1-9.998 5.527l-24.578 5.969a7.989 7.989 0 0 1-1.888.226zm14.742-29.833-3.165 10.79 10.923-2.653.08-.021a6.383 6.383 0 0 0 2.841-1.582c1.252-1.194 1.964-2.805 2.005-4.534s-.595-3.372-1.789-4.624a6.484 6.484 0 0 0-9.157-.216 6.374 6.374 0 0 0-1.714 2.764l-.023.075zM131.745 310.377a7.974 7.974 0 0 1-5.674-2.361c-13.254-13.336-43.413-50.279-37.227-105.144 4.488-39.801 19.425-73.567 44.396-100.36 21.775-23.363 50.808-40.563 83.96-49.741 9.75-2.699 19.46-4.85 28.862-6.392a8 8 0 0 1 2.591 15.789c-8.839 1.45-17.985 3.477-27.185 6.023-30.303 8.389-56.764 24.029-76.524 45.23-22.581 24.228-36.107 54.927-40.202 91.244-5.41 47.98 21.049 80.373 32.676 92.073a7.999 7.999 0 0 1-.035 11.313 7.975 7.975 0 0 1-5.639 2.326z" fill="#ffffff" opacity="1" data-original="#000000" class=""></path><path d="M136.303 305.989a8 8 0 0 1-7.985-7.623c-.69-14.613.051-43.58 12.768-73.4 15.743-36.918 44.355-63.443 85.042-78.837 46.795-17.706 87.07-16.207 112.616-11.832 16.327 2.796 28.851 7.053 36.576 10.182 2.054-11.261 1.805-33.933-22.431-60.422-14.917-16.305-41.016-25.061-73.538-24.685-4.408.099-8.042-3.486-8.095-7.904a8 8 0 0 1 7.904-8.095c37.155-.43 67.498 10.171 85.533 29.883 41.667 45.542 23.619 84.157 22.831 85.778a8.004 8.004 0 0 1-11.028 3.523c-.138-.075-15.642-8.341-41.153-12.608-23.441-3.919-60.436-5.168-103.553 11.145-36.453 13.792-62.019 37.394-75.986 70.148-11.466 26.888-12.128 53.124-11.503 66.37a8.001 8.001 0 0 1-7.998 8.378z" fill="#ffffff" opacity="1" data-original="#000000" class=""></path><path d="M148.459 106.746a8 8 0 0 1-7.856-9.555c3.082-15.567 17.129-67.873 68.492-87.331 33.24-12.594 63.106-11.441 88.768 3.426 21.917 12.697 34.878 32.427 40.653 43.058a8.001 8.001 0 0 1-14.06 7.638C313.522 43.855 280.949-.25 214.763 24.822c-43.658 16.54-55.787 61.952-58.465 75.476a8.003 8.003 0 0 1-7.839 6.448zM375.949 304.955a7.998 7.998 0 0 1-7.996-8.401c.843-16.794-.262-59.663-28.664-94.926-9.22-11.447-19.306-21.248-29.979-29.13a8 8 0 1 1 9.506-12.87c11.774 8.696 22.854 19.451 32.934 31.964 30.708 38.126 33.345 82.63 32.183 105.765a8 8 0 0 1-7.983 7.599z" fill="#ffffff" opacity="1" data-original="#000000" class=""></path></g></svg>