<svg width="330" height="65" viewBox="0 0 330 65" fill="none" xmlns="http://www.w3.org/2000/svg">
<path d="M39.1287 29.1425C35.9876 29.1425 33.4357 31.6951 33.4357 34.837C33.4357 37.979 35.9876 40.5316 39.1287 40.5316C42.2698 40.5316 44.8217 37.979 44.8217 34.837C44.8217 31.6951 42.2698 29.1425 39.1287 29.1425ZM39.1287 39.1607C36.7473 39.1607 34.8248 37.2191 34.8248 34.837C34.8248 32.455 36.7473 30.532 39.1287 30.532C41.5101 30.532 43.4512 32.455 43.4512 34.837C43.4512 37.2191 41.5101 39.1607 39.1287 39.1607Z" fill="#10874C"/>
<path d="M49.7799 21.4568L49.7303 20.9605C49.5969 19.7261 49.3954 18.5134 49.1318 17.3317L49.0233 16.8478L49.4853 16.6834C51.662 15.9049 53.9039 15.3529 56.1737 15.021C58.4558 14.6891 60.7628 14.5868 63.0636 14.7108L63.5659 14.7388L63.5938 15.2412C63.7179 17.5426 63.6155 19.8533 63.2838 22.1329C62.9551 24.4033 62.4 26.6457 61.6217 28.8231L61.4543 29.2852L60.9737 29.1766C59.7923 28.913 58.583 28.7145 57.3458 28.578L56.8496 28.5284C58.1427 28.8882 59.4078 29.3224 60.6388 29.828L61.1628 30.042L60.9458 30.5631C60.4341 31.7851 59.845 32.9854 59.1814 34.1609L59.4946 33.7794C60.2729 32.8086 60.9861 31.8099 61.6372 30.7895L61.9008 30.3739L62.3473 30.5848C64.4403 31.5773 66.4186 32.7683 68.2512 34.1361C70.0962 35.5132 71.8016 37.0733 73.3458 38.7947L73.6807 39.1669L73.3458 39.5391C71.5969 41.4869 69.6373 43.2362 67.4977 44.7435C65.814 45.9314 64.0155 46.9767 62.121 47.8544C62.3225 47.9754 62.5055 48.1212 62.6605 48.2886C62.7628 48.4003 62.8527 48.5213 62.9303 48.6515C65.8977 47.8017 68.6946 46.5517 71.2621 44.9668C73.8667 43.3571 76.2388 41.4031 78.307 39.1669C76.3132 37.0082 74.0342 35.1131 71.5349 33.5375C68.9365 31.8967 66.0962 30.6065 63.0822 29.7256L62.4124 29.5302L62.7473 28.9192C64.2574 26.165 65.352 23.2402 66.031 20.2441C66.6822 17.3627 66.952 14.4131 66.8372 11.4728C63.9008 11.358 60.9489 11.6279 58.0683 12.2792C55.0729 12.9584 52.152 14.0533 49.3985 15.5638L48.7876 15.8987L48.5923 15.2288C47.7117 12.2141 46.4186 9.373 44.7814 6.77387C43.2062 4.27399 41.3086 1.99432 39.1535 0C36.9954 1.99432 35.1008 4.27399 33.5256 6.77387C31.8853 9.373 30.5954 12.2141 29.7147 15.2288L29.5194 15.8987L28.9085 15.5638C26.152 14.0533 23.231 12.9584 20.2388 12.2792C17.3582 11.6279 14.4093 11.358 11.4698 11.4728C11.355 14.4131 11.6248 17.3627 12.276 20.2441C12.955 23.2371 14.0496 26.1619 15.5597 28.9161L15.8946 29.5271L15.2248 29.7225C12.2109 30.6034 9.37055 31.8936 6.7721 33.5344C4.27287 35.11 1.9969 37.0082 0 39.1638C2.06822 41.4 4.43721 43.3571 7.04497 44.9668C9.60931 46.5486 12.4093 47.7986 15.3768 48.6484C15.538 48.3786 15.755 48.1491 16.0062 47.9692C16.0651 47.9258 16.1209 47.8916 16.183 47.8544C14.2884 46.9767 12.4899 45.9314 10.8062 44.7435C8.66977 43.233 6.70698 41.4869 4.95814 39.5391L4.62326 39.1669L4.95814 38.7947C6.50233 37.0733 8.20776 35.5132 10.0527 34.1361C11.8853 32.7683 13.8636 31.5773 15.9566 30.5848L16.4031 30.3708L16.6667 30.7895C17.3209 31.8192 18.0372 32.821 18.8062 33.7794L19.1194 34.164C18.4558 32.9885 17.8698 31.7882 17.355 30.5662L17.138 30.0451L17.662 29.8311C18.893 29.3286 20.1582 28.8944 21.4512 28.5315L20.9551 28.5811C19.7209 28.7145 18.5085 28.9161 17.3271 29.1797L16.8465 29.2883L16.6822 28.8262C15.9039 26.6488 15.3488 24.4064 15.0202 22.136C14.6915 19.8533 14.5861 17.5457 14.7101 15.2443L14.7349 14.7419L15.2372 14.7139C17.538 14.5899 19.8481 14.6922 22.1271 15.0241C24.3969 15.3529 26.6388 15.908 28.8155 16.6865L29.2775 16.8509L29.1721 17.3348C28.9085 18.5165 28.7101 19.7261 28.5737 20.9636L28.5209 21.4599C28.8806 20.1665 29.3147 18.9011 29.8202 17.6667L30.0341 17.1425L30.552 17.3596C31.231 17.6449 31.907 17.9551 32.5768 18.287C33.0264 18.5134 33.476 18.7491 33.9256 18.9972L33.9411 18.9507C33.4915 18.5847 33.0295 18.228 32.5551 17.8807C31.9814 17.4619 31.3861 17.0556 30.7783 16.6679L30.3628 16.4043L30.5737 15.9577C31.5659 13.8641 32.7597 11.8853 34.1272 10.0522C35.5039 8.2068 37.0636 6.50093 38.7845 4.95944L39.1566 4.62447L39.5287 4.95944C41.2496 6.50403 42.8093 8.20991 44.1861 10.0522C45.5535 11.8853 46.7473 13.8641 47.7396 15.9577L47.9504 16.4012L47.5349 16.6648C46.9427 17.0432 46.3473 17.4464 45.7582 17.8807C45.2837 18.228 44.8217 18.5847 44.3721 18.9507L44.3876 18.9941C44.8372 18.746 45.2868 18.5072 45.7396 18.2839C46.3969 17.9551 47.0729 17.648 47.7613 17.3596L48.2791 17.1425L48.4931 17.6667C48.9954 18.898 49.4326 20.1665 49.7923 21.4599L49.7799 21.4568Z" fill="url(#paint0_linear_33770_220)"/>
<path d="M48.4031 41.1302C48.8434 40.6339 49.4326 39.874 49.9256 38.8443C50.0776 38.5279 52.3163 34.4711 50.3814 31.1679C49.1442 29.0526 46.8589 27.5483 45.1256 25.8735C43.4326 24.2172 41.814 22.3501 40.7473 20.2162C40.3845 19.4718 40.1582 18.653 40.1768 17.8341C40.1768 17.4154 40.2543 17.0153 40.214 16.5966C40.1768 16.1593 40.0806 15.6444 39.6993 15.3963C39.4326 15.2257 39.0884 15.2443 38.9768 15.2443C38.8651 15.2443 38.6729 15.2629 38.4434 15.3591C38.0434 15.5483 37.7768 15.967 37.7768 16.4446V18.4824C37.7582 19.0717 37.6993 19.6455 37.5473 20.2162C37.0326 22.1205 35.6806 23.6248 34.2729 24.9399C33.4915 25.6626 32.7504 26.3883 31.8915 27.0335C30.9954 27.7189 30.121 28.4416 29.3396 29.3007C28.2543 30.4824 27.3799 31.9278 27.1318 33.5096C26.8651 35.2806 27.3613 37.0888 28.1985 38.652C28.676 39.5484 29.2837 40.3455 29.9318 41.1674C30.2605 41.5458 30.7225 42.101 31.2279 42.805C32.3225 44.3341 33.2527 45.6616 33.5132 47.4698C33.6589 48.4965 33.5256 49.2253 33.476 49.4703C33.3334 50.1558 33.0822 50.6862 32.8868 51.0336C30.521 49.5417 26.4868 47.4977 21.7861 47.5288C19.3923 47.5443 18.1334 48.0932 17.2558 48.8252C17.0698 48.9803 14.983 50.7668 15.4078 52.9379C15.6372 54.1041 16.4899 54.8609 16.8744 55.2052C17.6217 55.8689 18.4217 56.1946 19.293 56.4427C23.1039 57.5314 26.338 56.8428 26.338 56.8428C26.338 56.8428 29.8047 56.1046 32.9272 53.3194C33.014 53.2419 33.0791 53.1674 33.0791 53.1674C33.1008 53.1426 33.1318 53.1023 33.169 53.0589C33.2155 53 33.2248 52.9845 33.231 52.9783C33.3241 52.8914 34.5148 53.6947 35.8481 55.4068C36.1241 55.7635 36.3256 56.0519 36.5086 56.3497C36.5086 56.3497 36.9148 57.0103 37.2124 57.7206C38.0465 59.718 37.0574 63.961 38.4682 64.8232C38.8558 65.0589 39.4512 65.0589 39.8388 64.8232C41.0853 64.0664 39.6837 61.1788 41.1132 57.7206C41.3551 57.1375 41.6031 56.7157 41.8171 56.3497C43.2962 53.8343 44.9644 52.8573 45.0543 52.941C45.0605 52.9472 45.0946 52.9938 45.1597 53.0651C45.1845 53.093 45.1876 53.0899 45.2062 53.1147C45.2496 53.1612 45.2651 53.1892 45.3055 53.2419C45.3055 53.2419 45.3241 53.2667 45.3768 53.3256C47.7024 55.962 51.9442 56.849 51.9473 56.849C51.9473 56.849 55.259 57.5407 59.0295 56.4489C59.8698 56.2039 60.6636 55.8813 61.4109 55.23C61.8078 54.8826 62.6512 54.1475 62.8962 53.0217C63.383 50.7854 61.107 48.8686 60.9923 48.7756C59.6155 47.6497 58.09 47.5908 56.2698 47.5195C56.2698 47.5195 50.4496 47.2899 45.4915 50.987C45.4605 51.0118 45.4543 51.0149 45.4543 51.0149C45.4202 51.0398 45.4171 51.0429 45.4171 51.0429C45.3427 51.0646 45.1504 50.497 45.1504 50.4939C44.9613 49.9325 44.8651 49.644 44.8248 49.4238C44.7783 49.1757 44.7659 48.9865 44.7566 48.85C44.7101 48.1925 44.7783 47.6714 44.8062 47.4822C44.8651 47.0945 44.983 46.5704 45.321 45.7857C45.4605 45.4631 45.8357 44.6381 47.1876 42.7585C47.4698 42.3677 47.8822 41.8063 48.4062 41.1395L48.4031 41.1302ZM31.5721 41.1674C30.0899 39.4925 27.9907 36.577 28.6016 33.5313C28.9799 31.6486 29.8264 30.1537 32.2016 28.5036C35.1349 26.4659 37.9721 23.3984 39.1504 19.9711C39.169 19.9339 39.169 19.9711 39.1876 20.0084C39.1876 20.0084 39.1876 20.0642 39.2062 20.0642C39.814 21.8352 40.8807 23.3581 42.0807 24.7879C43.9473 27.0552 46.5923 28.5594 48.4031 30.8825C48.7845 31.3788 49.1442 31.8719 49.3551 32.4643C49.3551 32.4643 49.6869 33.3483 49.6776 34.4649C49.6652 35.9722 48.6574 38.4845 46.6295 41.1302C46.3039 41.5024 45.8605 42.0482 45.3923 42.7492C44.6016 43.934 43.9163 44.9606 43.5845 46.4618C42.9706 49.2315 44.0434 51.4244 44.0993 51.5081C44.1582 51.5949 44.1768 51.7035 44.2419 51.7841C44.245 51.7872 44.2543 51.7996 44.2512 51.8121C44.2481 51.8276 44.2264 51.8307 44.1923 51.8524C44.152 51.8741 44.1241 51.902 44.1179 51.9082C44.0993 51.9268 44.0931 51.9361 44.0714 51.9485C44.062 51.9547 44.0558 51.9578 44.0434 51.964C44.0279 51.9733 44.0248 51.9795 44.0124 51.9888C44 52.0012 43.9969 51.9981 43.9659 52.0199C43.9287 52.0447 43.9101 52.0571 43.8946 52.0757C43.8884 52.0819 43.8822 52.0881 43.8729 52.0974C43.8574 52.1098 43.8481 52.1129 43.8357 52.1191C43.8171 52.1284 43.8171 52.1346 43.7954 52.1532C43.7799 52.1656 43.7644 52.178 43.7303 52.1997C43.7024 52.2184 43.6806 52.2308 43.6806 52.2308C42.3256 53.031 40.9241 55.2486 40.9241 55.2486C40.9241 55.2486 39.9597 56.7746 39.2248 58.9519C39.2217 58.9643 39.2155 58.9798 39.2155 58.9798C39.2155 58.9798 39.2093 58.9953 39.2062 59.0077C39.1938 59.0419 39.1783 59.1039 39.1783 59.1132C39.1566 59.2 39.1535 59.2186 39.1504 59.2186C39.1442 59.2186 39.1504 59.1783 39.138 59.1163C39.1287 59.0729 39.1225 59.0512 39.1132 59.0294C39.1101 59.0201 39.0977 59.0046 39.0946 58.9767C39.0946 58.9643 39.0946 58.9519 39.0946 58.9519C39.0946 58.9395 39.0915 56.908 37.0574 54.7244C36.1024 53.6978 34.0062 51.8958 34.0496 51.8121C34.0496 51.8121 34.0651 51.7779 34.0868 51.7345C34.1117 51.688 34.1241 51.6632 34.1241 51.657C34.1334 51.6384 34.1396 51.626 34.1396 51.626C34.7225 50.4474 34.8682 49.0485 34.8682 49.0485C35.0202 47.5474 34.6915 46.3843 34.5055 45.7546C34.3287 45.156 34.1334 44.7187 34.0682 44.5729C33.7179 43.8068 33.3458 43.2951 32.983 42.8019C32.6481 42.3491 32.1861 41.7753 31.5752 41.1643L31.5721 41.1674ZM28.9241 54.5197C26.831 55.5091 24.3535 55.9496 22.2233 55.6828C19.2155 55.3199 17.538 54.3119 16.9302 53.1674C16.5861 52.5006 16.6264 51.7779 16.9861 51.1111C17.4047 50.3884 18.2047 49.7402 19.3271 49.3215C22.0496 48.2917 26.5613 48.6174 32.1023 52.1594C31.2837 53.1302 30.1799 53.9118 28.9241 54.5197ZM61.3892 53.1457L61.3706 53.1643C60.7814 54.3057 59.1039 55.3168 56.0962 55.6797C53.9628 55.9465 51.4884 55.5091 49.3954 54.5166C48.1396 53.9056 47.014 53.1271 46.1954 52.1563C51.7551 48.6143 56.2481 48.2886 58.9892 49.3184C60.1117 49.7371 60.9117 50.3853 61.3117 51.108C61.5225 51.4523 61.6155 51.8307 61.6155 52.2122C61.6155 52.5347 61.538 52.8418 61.3861 53.1457H61.3892Z" fill="#10874C"/>
<path d="M123.603 32.8671H114.147L114.451 32.4791C114.672 32.1976 114.87 31.9161 115.037 31.6422C115.204 31.3912 115.319 31.1401 115.341 30.9423C115.341 30.8891 115.341 30.8282 115.372 30.775C115.402 30.638 115.402 30.5239 115.402 30.4402C115.402 30.2196 115.372 29.9609 115.288 29.6566L113.386 23.0531L105.215 26.3549C104.964 27.3363 104.683 28.3101 104.379 29.3219C104.325 29.5197 104.295 29.7707 104.295 30.0218C104.295 30.5543 104.432 31.0032 104.683 31.3912L105.801 32.8747H99C100.035 31.6726 100.735 30.5543 101.069 29.4893C105.124 15.3922 107.14 8.22575 107.14 7.9747C107.14 7.35847 106.942 6.74225 106.554 6.12603C106.303 5.73804 106.052 5.37287 105.771 5.0077H111.56C112.374 5.0077 113.044 5.2283 113.576 5.65433C114.444 6.38467 115.113 7.58669 115.615 9.29081L121.549 29.6566C121.937 30.5772 122.553 31.5585 123.421 32.6464L123.588 32.8671H123.603ZM106.258 22.7945L112.549 20.2231L109.75 10.5993L106.25 22.7945H106.258Z" fill="#FF6F00"/>
<path d="M125.893 32.867C126.312 32.3877 126.646 31.9465 126.928 31.4976C127.316 30.8814 127.574 30.151 127.681 29.3446V18.9373L122.257 8.24849C121.724 7.38121 120.941 6.377 119.906 5.25867L119.685 5.00763H128.579C128.214 5.59342 127.962 6.01184 127.848 6.26289C127.734 6.51394 127.681 6.84868 127.681 7.21385C127.681 7.51816 127.765 7.8605 127.932 8.24849L127.962 8.27892L131.766 15.8866L135.935 8.58323C136.24 7.99744 136.415 7.51816 136.415 7.09974C136.415 6.65089 136.194 5.95098 135.715 5.03045H142.516L142.014 5.4793C140.842 6.48351 139.945 7.4649 139.298 8.41586L133.311 18.9373V29.3446C133.364 30.1282 133.615 30.8586 134.064 31.4976C134.094 31.528 134.315 31.8324 134.733 32.4181C134.817 32.5551 134.931 32.6996 135.068 32.867H125.893Z" fill="#FF6F00"/>
<path d="M150.481 32.1975C148.526 31.528 147.149 30.4934 146.343 29.1164C145.924 28.3861 145.726 27.5796 145.696 26.6515V8.55278C145.643 7.73876 145.392 7.03886 144.943 6.39982C144.912 6.36939 144.912 6.31614 144.89 6.28571C144.608 5.92054 144.273 5.47168 143.908 5H153.114C152.665 5.56297 152.33 6.03465 152.109 6.39982C151.691 7.01604 151.44 7.74637 151.326 8.55278V26.6515C151.356 27.9676 151.828 28.949 152.756 29.5576C153.403 29.9761 154.125 30.2043 154.939 30.2043C155.753 30.2043 156.476 29.9837 157.123 29.5576C158.043 28.911 158.553 27.96 158.576 26.6515V8.55278C158.462 7.73876 158.211 7.01604 157.823 6.39982C157.625 6.09551 157.404 5.7836 157.153 5.47929C157.016 5.34235 156.902 5.17499 156.788 5.00762H165.963L165.628 5.47929C165.377 5.7836 165.149 6.09551 164.959 6.39982C164.761 6.70412 164.594 7.01604 164.457 7.35078C164.32 7.71595 164.236 8.10393 164.206 8.55278V26.6515C164.175 27.572 163.985 28.3861 163.559 29.1164C163.14 29.8163 162.555 30.4325 161.855 30.9651C161.124 31.4672 160.318 31.8856 159.39 32.1975C158.469 32.5018 157.602 32.6768 156.841 32.7605C156.088 32.8442 155.441 32.8746 154.939 32.8746C153.372 32.8746 151.889 32.654 150.489 32.2051L150.481 32.1975Z" fill="#FF6F00"/>
<path d="M185.499 32.867C184.267 32.867 183.232 32.1975 182.365 30.8281C182.114 30.4097 181.802 29.8239 181.445 29.0936L178.143 22.1554C176.994 22.802 175.99 23.3269 175.062 23.7758V29.3446C175.145 30.1587 175.366 30.8281 175.731 31.3835L176.85 32.867H167.644L168.763 31.3835C169.128 30.8205 169.348 30.151 169.432 29.3446V8.52997C169.379 8.05829 169.295 7.6627 169.151 7.32796C168.953 6.79542 168.588 6.17921 168.002 5.45648L167.637 5.00763H181.315C182.882 5.12174 184.252 5.54016 185.401 6.24007C187.166 7.27471 188.056 8.95601 188.056 11.2231C188.056 12.8435 187.325 14.5249 185.903 16.229C185.066 17.2104 184.031 18.1613 182.768 19.1351L187.158 28.1959C188.223 30.4325 189.509 31.9997 190.992 32.867H185.484H185.499ZM175.069 21.2576C176.302 20.6947 177.367 20.0556 178.234 19.3025C179.885 17.9026 181.034 16.2822 181.673 14.4335C182.091 13.2315 182.319 12.0523 182.319 10.9112C182.319 9.8461 182.152 9.00927 181.84 8.42347C181.505 7.83768 180.92 7.44207 180.075 7.22144C179.824 7.16819 178.143 7.13777 175.069 7.13777V21.2653V21.2576Z" fill="#FF6F00"/>
<path d="M227.205 32.867C226.505 32.867 225.889 32.6692 225.356 32.2812C224.71 31.8323 224.124 31.0487 223.591 29.9608C223.256 29.2914 221.773 26.2102 219.141 20.7555L216.76 24.1942V29.3446C216.813 30.1586 217.041 30.8281 217.406 31.3302C217.794 31.8628 218.159 32.3649 218.524 32.867H209.35L210.468 31.3835C210.833 30.7977 211.054 30.0978 211.137 29.3446V8.52996C211.023 7.71594 210.772 6.99322 210.384 6.37699C210.186 6.07269 209.966 5.76078 209.715 5.45647L209.35 5.00762H216.76V18.6026C222.131 10.8808 224.869 6.90953 224.953 6.6813C225.067 6.46067 225.12 6.26288 225.12 6.06508C225.12 5.78359 224.983 5.41843 224.702 5H230.575C229.822 5.75317 229.061 6.62044 228.278 7.63226L222.77 15.5747L228.871 28.1883C229.936 30.4021 231.222 31.9617 232.705 32.8594H227.197L227.205 32.867Z" fill="#FF6F00"/>
<path d="M256.106 32.867H246.901L247.266 32.4181C247.517 32.1138 247.746 31.8019 247.936 31.4976C248.134 31.1933 248.301 30.8814 248.438 30.5466C248.575 30.1815 248.659 29.7935 248.689 29.3446V21.3185L241.469 24.2551V29.3446C241.5 29.7935 241.583 30.1815 241.72 30.5466C241.857 30.8814 242.025 31.1933 242.222 31.4976C242.42 31.8019 242.641 32.1138 242.892 32.4181L243.257 32.867H234.052L234.417 32.4181C234.668 32.1138 234.896 31.8019 235.086 31.4976C235.284 31.1933 235.452 30.8814 235.566 30.5466C235.703 30.1815 235.786 29.7935 235.847 29.3446V8.52997C235.794 8.05829 235.71 7.6627 235.566 7.32796C235.452 6.96279 235.284 6.65849 235.086 6.377C234.889 6.07269 234.668 5.76078 234.417 5.45648L234.052 5.00763H243.257L242.892 5.45648C242.641 5.76078 242.413 6.07269 242.222 6.377C242.025 6.65849 241.857 6.96279 241.72 7.32796C241.583 7.69313 241.5 8.08111 241.469 8.52997V21.0903L248.689 18.1537V8.52997C248.659 8.05829 248.575 7.6627 248.438 7.32796C248.301 6.96279 248.134 6.65849 247.936 6.377C247.738 6.07269 247.517 5.76078 247.266 5.45648L246.901 5.00763H256.106L255.741 5.45648C255.49 5.76078 255.262 6.07269 255.072 6.377C254.874 6.65849 254.707 6.96279 254.593 7.32796C254.456 7.6627 254.372 8.05829 254.311 8.52997V29.3446C254.364 29.7935 254.448 30.1815 254.593 30.5466C254.707 30.8814 254.874 31.1933 255.072 31.4976C255.27 31.8019 255.49 32.1138 255.741 32.4181L256.106 32.867Z" fill="#FF6F00"/>
<path d="M264.604 32.867C265.023 32.3877 265.357 31.9465 265.639 31.4976C266.027 30.8814 266.286 30.151 266.392 29.3446V18.9373L260.968 8.24849C260.435 7.38121 259.652 6.377 258.617 5.25867L258.396 5.00763H267.29C266.925 5.59342 266.674 6.01184 266.559 6.26289C266.445 6.51394 266.392 6.84868 266.392 7.21385C266.392 7.51816 266.476 7.8605 266.643 8.24849L266.674 8.27892L270.477 15.8866L274.646 8.58323C274.951 7.99744 275.126 7.51816 275.126 7.09974C275.126 6.65089 274.905 5.95098 274.426 5.03045H281.227L280.725 5.4793C279.553 6.48351 278.656 7.4649 278.009 8.41586L272.022 18.9373V29.3446C272.075 30.1282 272.326 30.8586 272.775 31.4976C272.805 31.528 273.026 31.8324 273.444 32.4181C273.528 32.5551 273.642 32.6996 273.779 32.867H264.604Z" fill="#FF6F00"/>
<path d="M301.532 32.867H292.076L292.38 32.479C292.601 32.1975 292.798 31.916 292.966 31.6421C293.133 31.3911 293.247 31.14 293.27 30.9422C293.27 30.889 293.27 30.8281 293.301 30.7749C293.331 30.6379 293.331 30.5238 293.331 30.4401C293.331 30.2195 293.301 29.9609 293.217 29.6565L291.315 23.0531L283.144 26.3548C282.893 27.3362 282.612 28.31 282.307 29.3218C282.254 29.5196 282.224 29.7706 282.224 30.0217C282.224 30.5542 282.361 31.0031 282.612 31.3911L283.73 32.8746H276.929C277.963 31.6726 278.663 30.5543 278.998 29.4892C283.053 15.3921 285.069 8.22568 285.069 7.97462C285.069 7.3584 284.871 6.74218 284.483 6.12596C284.232 5.73797 283.981 5.3728 283.7 5.00763H289.489C290.303 5.00763 290.973 5.22823 291.505 5.65426C292.372 6.3846 293.042 7.58661 293.544 9.29074L299.478 29.6565C299.866 30.5771 300.482 31.5585 301.349 32.6464L301.517 32.867H301.532ZM284.187 22.7944L290.478 20.223L287.678 10.5993L284.179 22.7944H284.187Z" fill="#FF6F00"/>
<path d="M312.799 32.867H303.624L303.959 32.4181C304.545 31.665 304.94 31.0487 305.131 30.5466C305.267 30.1815 305.351 29.7935 305.382 29.3446V7.99744H300.847C300.262 7.99744 299.699 8.16479 299.113 8.52996C298.725 8.75059 298.246 9.14619 297.66 9.67873L297.18 10.0667L298.299 5H318.109L319.228 10.0667L318.748 9.67873C318.163 9.14619 317.683 8.75819 317.295 8.52996C316.732 8.16479 316.146 7.99744 315.561 7.99744H311.004V29.3446C311.057 29.7935 311.141 30.1815 311.285 30.5466C311.399 30.8814 311.567 31.1933 311.764 31.4976C311.848 31.5813 311.901 31.6954 311.985 31.8019C312.122 31.9997 312.289 32.2203 312.434 32.4181L312.799 32.867Z" fill="#FF6F00"/>
<path d="M330 32.867H320.795L321.16 32.4181C321.411 32.1138 321.639 31.8019 321.829 31.4976C322.019 31.1933 322.194 30.8814 322.309 30.5466C322.445 30.1815 322.529 29.7935 322.59 29.3446V8.52997C322.537 8.05829 322.453 7.6627 322.309 7.32796C322.194 6.96279 322.027 6.65849 321.829 6.377C321.631 6.07269 321.411 5.76078 321.16 5.45648L320.795 5.00763H330L329.635 5.45648C329.384 5.76078 329.155 6.07269 328.965 6.377C328.767 6.65849 328.6 6.96279 328.463 7.32796C328.326 7.69313 328.243 8.08111 328.212 8.52997V29.3446C328.243 29.7935 328.326 30.1815 328.463 30.5466C328.6 30.8814 328.767 31.1933 328.965 31.4976C329.163 31.8019 329.384 32.1138 329.635 32.4181L330 32.867Z" fill="#FF6F00"/>
<path d="M174.639 57.9589L172.216 56.8118L171.954 56.6349C171.643 56.4335 171.399 56.2078 171.228 55.9576L170.923 55.5183L170.843 55.0972V54.3589L170.721 54.4566L170.599 54.4993L170.52 54.542L170.459 54.5603L169.782 54.78L169.147 54.841L168.354 54.8227C167.622 54.8227 167.012 54.5786 166.523 54.0844C165.938 53.523 165.651 52.864 165.651 52.1074C165.651 51.5888 165.852 51.1312 166.255 50.7406C166.658 50.3501 167.152 50.1061 167.738 50.0145L168.214 49.9352H169.007C169.483 49.9352 169.983 50.0756 170.496 50.3562L170.673 50.4539L170.831 50.5759V48.5196H164.821L164.363 47.464H173.967L174.388 48.5196H172.491V55.5488L172.631 55.9881L172.851 56.3664L173.174 56.6471L175.639 57.9834H174.846L174.626 57.9712L174.639 57.9589ZM170.837 51.8389L170.068 51.3813L169.416 51.064L169.08 50.9664L168.781 50.8871C168.598 50.9115 168.445 50.9664 168.329 51.0457L167.896 51.3264C167.738 51.4484 167.591 51.6315 167.463 51.8878C167.384 52.0769 167.329 52.2844 167.304 52.5284C167.304 52.8762 167.372 53.2484 167.5 53.645L167.658 53.822L167.915 54.06L168.189 54.182L168.744 54.0234L169.355 53.7061C169.751 53.5047 170.129 53.2423 170.502 52.9067L170.837 52.565V51.8451V51.8389Z" fill="#10874C"/>
<path d="M178.538 57.9589L176.036 56.3298L175.456 55.9088L175.017 55.4695C174.962 55.4145 174.871 55.2681 174.736 55.0301L174.657 54.6091V48.5013H173.62L173.223 47.4457H178.037L178.434 48.5013H176.317V55.0484L176.457 55.4878L176.677 55.8661L177 56.1467L179.447 57.965H178.654L178.538 57.9529V57.9589Z" fill="#10874C"/>
<path d="M183.541 55.9759H182.748C182.193 55.9759 181.711 55.8966 181.308 55.744C180.905 55.5915 180.454 55.3108 179.953 54.902C179.453 54.4932 179.099 54.06 178.885 53.6023C178.782 53.3583 178.702 53.1203 178.647 52.8884C178.593 52.6566 178.568 52.382 178.568 52.0769C178.568 51.5949 178.751 51.1739 179.123 50.8078C179.386 50.5393 179.819 50.344 180.417 50.222H182.723V48.5074H177.708L177.293 47.4518H186.037L186.476 48.5074H184.377V51.003H182.29C181.961 51.003 181.674 51.0396 181.436 51.1189C181.198 51.1983 180.978 51.3325 180.783 51.5156C180.411 51.845 180.228 52.3149 180.228 52.919C180.228 53.2484 180.295 53.5535 180.423 53.8403C180.557 54.121 180.759 54.365 181.039 54.5603L181.674 54.9935L182.388 55.2132H182.565L182.485 55.0545V54.4383L182.626 54.121C182.693 54.0173 182.766 53.9318 182.852 53.883L183.157 53.7854H183.974C184.145 53.7854 184.285 53.8159 184.395 53.883C184.676 53.9623 184.841 54.1454 184.896 54.4322L184.975 54.841C184.975 55.3108 184.774 55.6342 184.377 55.8111L183.98 55.9759H183.541ZM184.639 56.2139L184.902 56.6715L185.201 57.0681C185.323 57.1901 185.475 57.2939 185.658 57.3854L187.037 58.2823H186.037L184.56 57.6234C184.224 57.4891 183.932 57.2633 183.681 56.9461L183.321 56.4091C183.242 56.2505 183.199 56.0979 183.199 55.9515L183.62 55.6891H184.42L184.639 56.2078V56.2139Z" fill="#10874C"/>
<path d="M190.936 57.9589L188.435 56.3298L187.855 55.9088L187.416 55.4695C187.361 55.4145 187.269 55.2681 187.135 55.0301L187.056 54.6091V48.5013H186.018L185.622 47.4457H190.436L190.833 48.5013H188.715V55.0484L188.856 55.4878L189.075 55.8661L189.399 56.1467L191.845 57.965H191.052L190.936 57.9529V57.9589Z" fill="#10874C"/>
<path d="M210.468 57.9712H209.675L206.679 55.9332L206.239 55.4756L205.959 55.0363L205.879 54.6152V53.1203L205.544 53.102H204.079L204.122 53.34V53.5413C204.122 54.2003 203.878 54.7495 203.396 55.1888C202.908 55.622 202.322 55.8417 201.626 55.8417H200.827C200.492 55.8417 200.174 55.7746 199.869 55.6403C199.375 55.4023 198.85 54.9996 198.289 54.4444C197.807 53.9624 197.404 53.3949 197.068 52.7298L197.087 52.5834L197.166 52.4186L197.288 52.2905H198.289C198.411 52.8824 198.832 53.4803 199.564 54.0844L200.284 54.5481C200.522 54.6701 200.778 54.7495 201.041 54.7922C201.492 54.7128 201.797 54.5298 201.962 54.2491C202.041 54.182 202.133 54.0173 202.243 53.7488L202.34 53.1447C202.34 52.742 202.279 52.4186 202.163 52.1806L201.986 51.9183L201.81 51.7596L201.687 51.8023L201.608 51.8451C201.37 51.8878 201.181 51.9488 201.047 52.0464L200.607 52.3271H199.808L198.972 51.479L198.93 51.3813L199.07 51.2227L199.552 51.0457L200.229 50.9054H201.065L201.364 50.7223L201.645 50.3929L201.822 50.0024L201.901 49.5874C201.901 49.1603 201.748 48.8308 201.443 48.599L201.126 48.4159L200.766 48.3732H200.607L200.229 48.4159C200.107 48.4159 199.997 48.4647 199.887 48.5562L199.57 48.7942L199.332 48.9529L198.533 48.9346L197.917 48.0986L198.277 47.8362C198.38 47.7569 198.539 47.6898 198.734 47.6349L199.253 47.5129L199.814 47.4701H200.614C201.242 47.4701 201.907 47.7081 202.621 48.1901C203.256 48.6539 203.573 49.1908 203.573 49.8071L203.512 50.283C203.469 50.6125 203.335 50.8993 203.103 51.1373L202.713 51.479C202.859 51.5034 202.999 51.5583 203.134 51.6376L203.774 51.9793L204.195 52.1806L204.616 52.3027H204.818L205.056 52.2417L205.538 52.1013C205.58 52.0891 205.623 52.0769 205.666 52.0586C205.715 52.0464 205.788 52.0037 205.898 51.9366V48.5257H203.823L203.384 47.4701H209.016L209.394 48.5257H207.557L207.594 55.0789L207.734 55.5183L207.954 55.9149L208.271 56.1773L210.718 57.9651L210.48 57.9895L210.468 57.9712Z" fill="#10874C"/>
<path d="M213.775 57.9589L211.273 56.3298L210.694 55.9088L210.254 55.4695C210.199 55.4145 210.108 55.2681 209.974 55.0301L209.894 54.6091V48.5013H208.857L208.46 47.4457H213.275L213.671 48.5013H211.554V55.0484L211.694 55.4878L211.914 55.8661L212.237 56.1467L214.684 57.965H213.891L213.775 57.9529V57.9589Z" fill="#10874C"/>
<path d="M223.233 57.9101L220.304 55.9332L219.864 55.4755L219.584 55.0362L219.504 54.6152V54.1332L219.462 54.1759L219.382 54.2186L218.784 54.3772L218.247 54.42L217.454 54.4017C217.015 54.4017 216.618 54.3406 216.258 54.2186C215.435 53.883 214.849 53.3522 214.489 52.6139C214.318 52.2417 214.233 51.8511 214.233 51.4545L215.673 50.8566C216.112 50.6186 216.332 50.2586 216.332 49.7766C216.332 49.5508 216.319 49.4044 216.289 49.3372L216.167 48.9955C216.155 48.9284 216.087 48.8369 215.965 48.7149C215.923 48.6356 215.837 48.5684 215.703 48.5135H213.165L212.725 47.4579H222.628L223.068 48.5135H221.152V55.0606L221.298 55.4817L221.53 55.86C221.603 55.9637 221.713 56.0674 221.872 56.159L224.343 57.9834H223.544L223.226 57.9223L223.233 57.9101ZM219.498 48.5074H217.125L217.564 49.0444L217.906 49.563L218.028 49.8437L218.107 50.0816L218.168 50.3623V50.6247C218.168 50.7284 218.095 50.8566 217.948 51.003L217.43 51.5034L216.728 51.9854L216.051 52.3271V52.565C216.051 52.803 216.155 53.0776 216.368 53.3827L216.631 53.6206L216.972 53.7427L217.473 53.645L218.052 53.4681C218.626 53.3095 219.108 53.0166 219.511 52.5895V48.5135L219.498 48.5074Z" fill="#10874C"/>
<path d="M223.641 60.5461L222.751 60.8267C222.458 60.8817 222.268 60.9122 222.189 60.9244H220.951C220.487 60.9244 220.102 60.8511 219.809 60.7047C219.413 60.6254 218.961 60.4179 218.473 60.0762L217.497 59.3928C217.228 59.2159 216.923 58.9474 216.576 58.5874L216.753 58.3738H217.552C217.765 58.5874 218.046 58.8193 218.388 59.0573L219.346 59.643C219.718 59.8444 220.06 59.9847 220.365 60.064L221.304 60.2837C221.426 60.2837 221.585 60.241 221.786 60.1617L222.207 59.9786C222.647 59.6918 222.866 59.3623 222.866 58.984L222.805 58.4471C222.763 58.2884 222.714 58.1603 222.647 58.0688L222.567 57.9467L222.525 57.904L222.445 57.8857L222.244 57.9834L222.085 58.081L221.768 58.3495H220.951L220.133 57.7393L220.353 57.4769C220.395 57.4098 220.487 57.3488 220.633 57.2939L220.993 57.1535L221.433 57.1108H222.214C222.732 57.1108 223.269 57.3732 223.824 57.8918C224.294 58.3861 224.532 58.8315 224.532 59.2159C224.532 59.7894 224.233 60.2349 223.641 60.54V60.5461Z" fill="#10874C"/>
<path d="M232.824 57.9589L230.402 56.8118L230.14 56.6349C229.828 56.4335 229.584 56.2078 229.407 55.9576L229.102 55.5183L229.023 55.0972V54.3589L228.901 54.4566L228.779 54.4993L228.7 54.542L228.639 54.5603L227.961 54.78L227.327 54.841L226.534 54.8227C225.801 54.8227 225.191 54.5786 224.703 54.0844C224.117 53.523 223.83 52.864 223.83 52.1074C223.83 51.5888 224.032 51.1312 224.435 50.7406C224.837 50.3501 225.332 50.1061 225.917 50.0145L226.393 49.9352H227.186C227.662 49.9352 228.163 50.0756 228.675 50.3562L228.852 50.4539L229.011 50.5759V48.5196H223.001L222.543 47.464H232.147L232.568 48.5196H230.67V55.5488L230.811 55.9881L231.03 56.3664L231.354 56.6471L233.819 57.9834H233.026L232.806 57.9712L232.824 57.9589ZM229.023 51.8389L228.254 51.3813L227.601 51.064L227.266 50.9664L226.967 50.8871C226.784 50.9115 226.631 50.9664 226.515 51.0457L226.082 51.3264C225.923 51.4484 225.777 51.6315 225.649 51.8878C225.569 52.0769 225.515 52.2844 225.49 52.5284C225.49 52.8762 225.557 53.2484 225.685 53.645L225.844 53.822L226.1 54.06L226.375 54.182L226.93 54.0234L227.54 53.7061C227.937 53.5047 228.315 53.2423 228.687 52.9067L229.023 52.565V51.8451V51.8389Z" fill="#10874C"/>
<path d="M231.647 44.7L231.262 44.3522L231.061 44.2484L230.884 44.1691L230.707 44.2667L230.53 44.4071C230.463 44.462 230.396 44.5962 230.317 44.8098L230.237 45.3711C230.237 45.6396 230.243 45.8349 230.256 45.963C230.268 46.0911 230.317 46.2559 230.396 46.4572C230.487 46.7806 230.658 47.1162 230.896 47.464L230.06 47.4457H229.615L229.389 47.1467L229.102 46.5244L228.877 45.8654L228.755 45.3834V44.883C228.755 44.6267 228.785 44.3888 228.846 44.1691C228.907 43.9494 229.011 43.742 229.157 43.5589C229.45 43.1989 229.822 43.0159 230.274 43.0159H231.055C231.439 43.0159 231.775 43.1745 232.056 43.4979L232.397 43.919C232.531 44.0898 232.647 44.2972 232.757 44.5352V45.1332H231.952C231.873 44.944 231.769 44.7976 231.647 44.7061V44.7Z" fill="#10874C"/>
<path d="M229.072 47.5373C228.846 47.1346 228.608 46.7746 228.352 46.4512L227.516 45.4078C227.437 45.3162 227.327 45.2003 227.199 45.0661C227.064 44.9318 226.918 44.8037 226.759 44.6817C226.546 44.523 226.344 44.4254 226.161 44.401H225.081L224.044 42.9244H226.1C226.46 42.9244 227.083 43.4125 227.98 44.3827C228.7 45.182 229.475 46.2376 230.317 47.5556L229.499 47.5373H229.078H229.072Z" fill="#10874C"/>
<path d="M237.852 55.9759H237.059C236.504 55.9759 236.022 55.8966 235.619 55.744C235.216 55.5915 234.765 55.3108 234.264 54.902C233.764 54.4932 233.41 54.06 233.197 53.6023C233.093 53.3583 233.014 53.1203 232.959 52.8884C232.904 52.6566 232.879 52.382 232.879 52.0769C232.879 51.5949 233.062 51.1739 233.435 50.8078C233.697 50.5393 234.13 50.344 234.728 50.222H237.035V48.5074H232.019L231.604 47.4518H240.348L240.787 48.5074H238.688V51.003H236.601C236.272 51.003 235.985 51.0396 235.747 51.1189C235.509 51.1983 235.289 51.3325 235.094 51.5156C234.722 51.845 234.539 52.3149 234.539 52.919C234.539 53.2484 234.606 53.5535 234.734 53.8403C234.868 54.121 235.07 54.365 235.35 54.5603L235.985 54.9935L236.699 55.2132H236.876L236.797 55.0545V54.4383L236.937 54.121C237.004 54.0173 237.077 53.9318 237.163 53.883L237.468 53.7854H238.285C238.456 53.7854 238.597 53.8159 238.706 53.883C238.987 53.9623 239.152 54.1454 239.207 54.4322L239.286 54.841C239.286 55.3108 239.085 55.6342 238.688 55.8111L238.291 55.9759H237.852ZM238.944 56.2139L239.207 56.6715L239.506 57.0681C239.628 57.1901 239.78 57.2939 239.963 57.3854L241.342 58.2823H240.342L238.865 57.6234C238.529 57.4891 238.237 57.2633 237.986 56.9461L237.626 56.4091C237.547 56.2505 237.504 56.0979 237.504 55.9515L237.925 55.6891H238.725L238.944 56.2078V56.2139Z" fill="#10874C"/>
<path d="M253.863 48.5074V51.2837L253.942 51.241L254.04 51.18C254.369 50.9908 254.729 50.881 255.12 50.8383H255.919C256.169 50.8383 256.401 50.9298 256.597 51.1189C257.036 51.424 257.396 52.0098 257.677 52.8701C257.768 53.2423 257.817 53.5474 257.817 53.7854C257.817 54.1454 257.713 54.5298 257.5 54.9386C257.365 55.2681 257.195 55.5732 256.981 55.8539L256.761 56.0918L255.962 56.0735L255.346 55.2071L255.767 54.603L256.108 53.9806L256.328 53.4437L256.407 52.9616C256.407 52.6383 256.316 52.3393 256.127 52.0708L255.95 51.8695L255.773 51.7291C255.584 51.7962 255.449 51.8694 255.352 51.9488L254.931 52.2661L254.333 52.925L253.875 53.6817V55.4389L254.022 55.8356L254.254 56.2139L254.595 56.5311L257.066 58.3983H256.267L256.066 58.3189L253.015 56.3237L252.576 55.8661L252.295 55.4084L252.216 54.9874V54.4077L252.118 54.4688H252.039L251.483 54.6274H249.995C249.86 54.6274 249.757 54.6213 249.677 54.6091C249.598 54.5969 249.421 54.5481 249.14 54.4688C248.634 54.2125 248.286 53.761 248.085 53.102C247.993 52.7298 247.944 52.4247 247.944 52.1989C247.944 51.662 248.103 51.2044 248.42 50.8139C248.579 50.6247 248.774 50.4844 248.994 50.3806C249.22 50.283 249.476 50.2281 249.769 50.2281H250.562C250.934 50.2281 251.233 50.2708 251.459 50.3623C251.697 50.399 251.941 50.5027 252.197 50.6674L252.216 48.5135H247.243L246.846 47.4579H258.445L258.885 48.5135H253.875L253.863 48.5074ZM252.203 51.9793L251.63 51.54L251.154 51.241L250.873 51.1434L250.574 51.064C250.245 51.1312 249.988 51.2654 249.799 51.4667C249.47 51.723 249.305 52.0769 249.305 52.5345C249.305 52.9373 249.427 53.2912 249.677 53.6023L249.97 53.8464L250.324 53.9867C250.507 53.9623 250.623 53.9257 250.678 53.883L251.068 53.7427L251.654 53.3949L252.203 52.9678V51.9915V51.9793Z" fill="#10874C"/>
<path d="M263.473 57.9589L260.972 56.3298L260.392 55.9088L259.953 55.4695C259.898 55.4145 259.806 55.2681 259.672 55.0301L259.593 54.6091V48.5013H258.555L258.159 47.4457H262.973L263.37 48.5013H261.252V55.0484L261.393 55.4878L261.612 55.8661L261.936 56.1467L264.382 57.965H263.589L263.473 57.9529V57.9589Z" fill="#10874C"/>
<path d="M156.565 52.2782C156.565 52.504 156.382 52.6932 156.151 52.6932H153.289L152.471 53.7243C152.331 53.9013 152.068 53.9318 151.892 53.7915C151.849 53.761 151.818 53.7183 151.794 53.6755L151.007 52.3332L149.945 57.0071C149.902 57.1962 149.738 57.3305 149.542 57.3305C149.542 57.3305 149.542 57.3305 149.536 57.3305C149.341 57.3305 149.176 57.184 149.14 56.9949L148.035 51.0396L146.479 54.4505C146.382 54.6579 146.138 54.7494 145.93 54.6579C145.845 54.6213 145.778 54.5542 145.735 54.4688L144.881 52.7847H141.415C141.189 52.7847 141 52.6016 141 52.3698C141 52.1379 141.183 51.9549 141.415 51.9549H145.137C145.296 51.9549 145.436 52.0403 145.509 52.1806L146.089 53.3216L147.834 49.502C147.932 49.2945 148.176 49.203 148.383 49.2945C148.505 49.3494 148.597 49.4654 148.621 49.5935L149.603 54.8654L150.452 51.1311C150.5 50.9054 150.726 50.7711 150.946 50.82C151.056 50.8444 151.153 50.9176 151.208 51.0152L152.221 52.7359L152.788 52.022C152.868 51.9244 152.984 51.8633 153.112 51.8633H156.169C156.395 51.8633 156.584 52.0464 156.584 52.2782H156.565Z" fill="#10874C"/>
<path d="M287.77 52.2783C287.77 52.504 287.587 52.6932 287.355 52.6932H284.494L283.676 53.7244C283.536 53.9013 283.273 53.9318 283.096 53.7915C283.054 53.761 283.023 53.7183 282.999 53.6755L282.212 52.3332L281.15 57.0071C281.107 57.1962 280.942 57.3305 280.747 57.3305C280.747 57.3305 280.747 57.3305 280.741 57.3305C280.546 57.3305 280.381 57.184 280.344 56.9949L279.24 51.0396L277.684 54.4505C277.586 54.6579 277.342 54.7494 277.135 54.6579C277.05 54.6213 276.982 54.5542 276.94 54.4688L276.085 52.7847H272.62C272.394 52.7847 272.205 52.6016 272.205 52.3698C272.205 52.1379 272.388 51.9549 272.62 51.9549H276.342C276.5 51.9549 276.641 52.0403 276.714 52.1806L277.294 53.3216L279.039 49.502C279.136 49.2945 279.38 49.203 279.588 49.2945C279.71 49.3494 279.801 49.4654 279.826 49.5935L280.808 54.8654L281.656 51.1311C281.705 50.9054 281.931 50.7711 282.151 50.82C282.26 50.8444 282.358 50.9176 282.413 51.0152L283.426 52.7359L283.993 52.022C284.073 51.9244 284.189 51.8633 284.317 51.8633H287.374C287.599 51.8633 287.789 52.0464 287.789 52.2783H287.77Z" fill="#10874C"/>
<defs>
<linearGradient id="paint0_linear_33770_220" x1="39.1504" y1="48.6484" x2="39.1504" y2="-0.00310285" gradientUnits="userSpaceOnUse">
<stop stop-color="#FF6F00"/>
<stop offset="1" stop-color="#FFC700"/>
</linearGradient>
</defs>
</svg>
