<svg width="190" height="175" viewBox="0 0 190 175" fill="none" xmlns="http://www.w3.org/2000/svg">
<path d="M52.8316 84.8623C52.8316 94.8207 60.8766 102.934 70.7906 102.934C88.0212 103.072 95.3195 80.1839 81.275 70.1942C69.8433 61.6682 52.4148 70.5143 52.8316 84.8623ZM70.7906 96.5706C63.6442 96.7798 57.8047 89.4531 59.388 82.6663C60.5386 81.2947 63.3175 83.5686 66.0395 82.7302C70.2543 81.4318 69.817 74.0612 73.4024 73.4835C74.8048 73.2575 75.9883 74.2557 77.5689 75.3804C86.7035 81.7823 81.9229 96.6908 70.7906 96.5706Z" fill="#88C3A6"/>
<path d="M143.611 57.5625C144.309 57.566 145.007 57.5438 145.701 57.6262V54.0945C145.701 48.8446 141.425 44.5493 136.199 44.5493H34.8416C29.6153 44.5493 25.3394 48.8446 25.3394 54.0945V124.092C25.3394 129.342 29.6153 133.638 34.8416 133.638H102.783C104.873 131.251 107.249 129.088 109.878 127.274H97.2373C98.1339 116.738 91.2184 106.393 80.7506 104.144C79.6464 103.921 78.5328 104.281 77.7781 105.101C75.9747 107.059 73.4291 108.184 70.7906 108.184C68.1212 108.184 65.6343 107.093 63.7876 105.117C63.036 104.306 61.9162 103.949 60.8305 104.176C50.3477 106.419 43.4465 116.728 44.3439 127.274H34.8416C33.0994 127.274 31.6742 125.842 31.6742 124.092V54.0945C31.6742 52.3446 33.0994 50.9128 34.8416 50.9128H136.199C137.941 50.9128 139.366 52.3446 139.366 54.0945V57.2762C140.76 57.2762 142.185 57.3716 143.611 57.5625Z" fill="#88C3A6"/>
<path d="M79.0432 15.774C74.9741 16.0149 75.1188 22.0774 79.1824 22.1343C79.3278 22.1312 82.4952 21.9883 82.4952 21.9883C86.6807 21.7214 86.3254 15.5147 82.2107 15.631L79.0432 15.774Z" fill="#88C3A6"/>
<path d="M88.4589 12.1013C89.6374 10.8026 89.5477 8.79222 88.2578 7.60528L85.9194 5.45825C84.6264 4.27755 82.6251 4.35833 81.4435 5.66023C80.265 6.95901 80.3547 8.96935 81.6446 10.1563L83.983 12.3033C85.2729 13.4838 87.2742 13.4019 88.4589 12.1013Z" fill="#88C3A6"/>
<path d="M94.738 0.00835078C92.9904 0.0860167 91.6386 1.57436 91.716 3.32991L91.8583 6.51164C91.9356 8.21745 93.3368 9.55044 95.0195 9.55044C96.9126 9.46965 98.2643 7.98134 98.1869 6.22579L98.0446 3.04407C97.9642 1.28852 96.4455 -0.122164 94.738 0.00835078Z" fill="#88C3A6"/>
<path d="M108.317 9.95149C111.095 6.86725 106.45 2.59996 103.64 5.6574L101.503 8.00641C98.7267 11.0899 103.366 15.3589 106.18 12.3003C106.18 12.3005 108.317 9.95149 108.317 9.95149Z" fill="#88C3A6"/>
<path d="M107.405 22.2772C107.55 22.2741 110.717 22.1312 110.717 22.1312C114.891 21.8857 114.563 15.6029 110.433 15.7739L107.265 15.9169C103.196 16.1578 103.341 22.2203 107.405 22.2772Z" fill="#88C3A6"/>
<path d="M98.0949 140.001H31.6742C24.6743 140.001 19.0045 134.306 19.0045 127.274V50.9128C19.0045 43.8811 24.6743 38.1859 31.6742 38.1859H139.366C146.366 38.1859 152.036 43.8811 152.036 50.9128V58.4535C154.221 58.8989 156.312 59.5989 158.371 60.4898V50.9128C158.371 40.3813 149.851 31.8224 139.366 31.8224H98.19V19.0955C98.19 17.3369 96.7733 15.9138 95.0226 15.9138C93.2719 15.9138 91.8552 17.3369 91.8552 19.0955V31.8224H31.6742C21.1898 31.8224 12.6697 40.3813 12.6697 50.9128V127.274C12.6697 132.174 14.507 136.628 17.5476 140.001H11.086C4.97307 140.001 0 144.996 0 151.137C0 157.278 4.97307 162.273 11.086 162.273H91.8552C91.8552 160.046 92.0137 157.946 92.3303 155.91H11.086C8.45676 155.91 6.33484 153.778 6.33484 151.137C6.33484 148.496 8.45676 146.364 11.086 146.364H73.2624C75.0425 154.64 85.8718 158.76 92.7104 153.65C96.2173 151.23 99.7938 145.301 97.4298 141.115C97.6201 140.733 97.8417 140.351 98.0949 140.001Z" fill="#88C3A6"/>
<path d="M180.511 130.648C180.113 124.107 176.304 123.337 174.176 114.739C172.201 106.76 174.71 104.399 174.327 97.6077C176.577 79.8535 161.073 63.0467 143.338 63.9561C141.105 63.6361 138.715 63.5275 136.167 63.8318C123.333 64.6037 106.827 80.9688 117.011 80.7437C114.302 86.2892 113.173 92.1762 114.027 98.3993V108.454C113.995 112.363 117.572 115.004 121.296 114.547C125.234 119.065 130.324 122.215 135.945 123.79C135.526 124.418 135.096 125.049 134.666 125.683C114.923 125.349 97.9596 142.404 98.19 162.18C98.19 169.249 103.916 175 110.953 175H177.283C197.673 173.484 189.733 146.181 179.787 136.831C180.347 134.82 180.639 132.743 180.511 130.648ZM125.265 109.392C124.254 107.866 121.915 108.205 120.362 108.184V98.188C119.482 92.2052 120.758 86.281 124.026 81.2424C132.557 84.7455 125.111 92.9929 129.832 102.013C133.052 108.198 137.508 106.765 139.335 111.558C140.171 113.752 139.917 115.899 139.11 118.041C133.687 116.885 128.802 113.885 125.265 109.392ZM183.71 162.18C183.71 165.741 180.827 168.636 177.283 168.636H110.952C107.408 168.636 104.525 165.741 104.525 162.18C104.388 147.276 116.044 133.971 130.801 132.299C125.07 144.231 139.577 151.281 145.67 152.92C151.731 155.386 168.573 157.119 176.933 143.158C181.208 148.437 183.71 155.126 183.71 162.18Z" fill="#88C3A6"/>
</svg>
