<svg width="75" height="60" viewBox="0 0 75 60" fill="none" xmlns="http://www.w3.org/2000/svg">
<path d="M0 60V40.1739C0 32.6956 1.22378 25.7391 3.67133 19.3043C6.29371 12.6956 10.7517 6.26086 17.0455 0L27.7972 8.6087C22.9021 13.6522 19.5804 18.3478 17.8322 22.6957C16.0839 26.8696 15.2098 31.3044 15.2098 36L8.65385 31.0435H29.1084V60H0ZM45.8916 60V40.1739C45.8916 32.6956 47.1154 25.7391 49.5629 19.3043C52.1853 12.6956 56.6434 6.26086 62.9371 0L73.6888 8.6087C68.7937 13.6522 65.472 18.3478 63.7238 22.6957C61.9755 26.8696 61.1014 31.3044 61.1014 36L54.5455 31.0435H75V60H45.8916Z" fill="#FFD4B3"/>
</svg>
